<svg width="132" height="171" viewBox="0 0 132 171" fill="none" xmlns="http://www.w3.org/2000/svg">
<path d="M77.541 95.9997C72.4502 90.9964 69.238 85.4606 67.7123 79.0561C66.1354 72.4707 66.2816 62.7596 69.3718 58.6604C69.9336 57.9151 70.6106 57.2348 71.9523 56.8544C72.5785 56.6769 73.2303 56.5898 74.1123 56.6328C76.234 56.6173 77.615 57.3979 78.9201 59.2744C82.6821 65.045 83.4218 80.2677 79.8667 95.3403C79.4969 96.4219 78.2445 96.7769 77.541 95.9997ZM66.7758 21.8899C69.7277 21.0531 72.8606 22.8998 73.732 25.9737C74.6034 29.0475 72.9058 32.2636 69.9538 33.1004C67.0019 33.9373 63.9585 32.0652 63.0871 28.9913C62.2157 25.9175 63.8239 22.7268 66.7758 21.8899ZM120.501 132.657L118.623 133.19C117.996 133.367 117.332 133.068 117.037 132.37C113.439 124.111 106.083 114.866 93.0147 106.948C92.1835 106.402 91.7227 105.458 92.0287 104.492C96.7713 87.8133 98.8886 64.2599 90.4816 51.3086C88.2935 48.022 85.5693 45.571 82.4239 44.0209C81.759 43.721 81.6178 42.882 82.1414 42.3429C87.4036 37.0419 89.5831 28.7078 86.7654 20.8138C83.1924 11.278 73.4742 5.6331 64.0556 7.52179C52.9373 9.89229 46.3761 21.5196 49.5798 32.8205C51.22 38.6066 55.0961 43.0751 59.9678 45.601C60.5432 45.9262 60.6844 46.7652 60.2502 47.279C59.5733 47.9593 58.8325 48.7553 58.2068 49.6164C50.9923 59.2801 52.2818 74.7375 54.1663 82.4078C55.0251 85.7783 56.1523 89.0726 57.7011 92.1498C60.7093 98.3294 65.008 103.948 70.7762 108.954C72.5667 110.498 74.3955 111.835 76.3137 113.147L86.1474 119.541C96.1475 126.18 102.723 133.693 105.515 141.496C105.592 141.768 105.758 142.014 105.861 142.375C107.449 147.297 112.513 150.159 117.343 148.79L124.768 146.685C128.525 145.62 130.643 141.503 129.452 137.641C128.145 133.714 124.169 131.618 120.501 132.657Z" fill="white" fill-opacity="0.2"/>
<path d="M68.6056 121.389C68.3498 121.169 67.8769 121.205 67.6598 121.462C58.7713 131.698 49.4522 129.847 45.6303 129.66C40.8371 129.456 36.7112 132.97 36.0885 137.933L35.0216 147.123C34.5899 151.055 37.2895 154.783 41.1244 155.356C44.9593 155.929 48.4339 153.186 48.9551 149.229L49.3868 145.298C49.4757 144.589 49.9355 144.165 50.5873 144.078C58.1536 143.496 69.1578 142.428 79.1057 130.133C79.3866 129.761 79.2584 129.309 78.9132 129.113C77.3659 128.087 75.7929 126.97 74.22 125.853C72.455 124.4 70.4856 122.907 68.6056 121.389Z" fill="white" fill-opacity="0.2"/>
</svg>
