<svg width="904" height="160" viewBox="0 0 904 160" fill="none" xmlns="http://www.w3.org/2000/svg">
<g clip-path="url(#clip0_6206_21777)">
<path d="M59.5015 94.5C55.7015 87.9 54.0015 81.3 54.3015 74.3C54.6015 67.1 57.6015 57.2 62.0015 53.9C62.8015 53.3 63.7015 52.8 65.2015 52.8C65.9015 52.8 66.6015 52.9 67.5015 53.2C69.7015 53.8 70.9015 55 71.7015 57.3C73.9015 64.3 70.2015 80.1 62.1015 94.5C61.4015 95.5 60.0015 95.5 59.5015 94.5ZM70.1015 15.5C73.4015 15.5 76.1015 18.3 76.1015 21.7C76.1015 25.1 73.4015 27.9 70.1015 27.9C66.8015 27.9 64.2015 25.1 64.2015 21.7C64.2015 18.3 66.8015 15.5 70.1015 15.5ZM93.2015 144.5H91.1015C90.4015 144.5 89.8015 144 89.7015 143.2C88.4015 133.7 83.5015 122.1 72.3015 110.2C71.6015 109.4 71.4015 108.3 72.0015 107.4C81.8015 91.7 90.9015 68.2 86.0015 52.5C84.7015 48.5 82.6015 45.2 79.8015 42.7C79.2015 42.2 79.3015 41.3 80.0015 40.9C87.0015 37 91.7015 29.1 91.1015 20.2C90.2015 9.39995 81.8015 0.799954 71.5015 -4.64804e-05C59.3015 -0.800046 49.1015 9.19995 49.1015 21.7C49.1015 28.1 51.8015 33.8 56.1015 37.8C56.6015 38.3 56.5015 39.2 55.9015 39.6C55.0015 40.1 54.0015 40.7 53.1015 41.4C42.8015 49.2 39.6015 65.4 39.3015 73.8C39.2015 77.5 39.4015 81.2 40.1015 84.8C41.4015 92 44.2015 99 48.7015 105.8C50.1015 107.9 51.6015 109.8 53.2015 111.7L61.5015 121.1C69.9015 130.8 74.5015 140.4 75.1015 149.2C75.1015 149.5 75.2015 149.8 75.2015 150.2C75.4015 155.7 79.8015 160.1 85.2015 160.1H93.5015C97.7015 160.1 101.101 156.5 101.001 152.2C100.801 147.8 97.3015 144.5 93.2015 144.5Z" fill="#1769FF"/>
<path d="M42.8005 117.9C42.6005 117.6 42.1005 117.5 41.8005 117.7C29.6005 125.6 20.5005 121 16.6005 119.7C11.7005 118.1 6.40055 120.5 4.30055 125.4L0.500547 134.5C-1.09945 138.4 0.600547 143 4.40055 144.7C8.20055 146.4 12.6005 144.6 14.3005 140.7L15.9005 136.8C16.2005 136.1 16.8005 135.8 17.5005 135.9C25.5005 137.5 37.2005 139.6 51.1005 129.9C51.5005 129.6 51.5005 129.1 51.2005 128.8C49.9005 127.3 48.6005 125.7 47.3005 124.1C45.9005 122.1 44.3005 120 42.8005 117.9Z" fill="#1769FF"/>
<path d="M149.9 60.8998V122.7H134.7V60.8998H149.9ZM135.8 50.8998C134 49.1998 133.1 46.9998 133.1 44.3998C133.1 41.7998 134 39.5998 135.8 37.8998C137.6 36.1998 139.8 35.2998 142.5 35.2998C145.2 35.2998 147.4 36.1998 149.2 37.8998C151 39.5998 151.9 41.7998 151.9 44.3998C151.9 46.9998 151 49.1998 149.2 50.8998C147.4 52.5998 145.2 53.4998 142.5 53.4998C139.8 53.4998 137.6 52.5998 135.8 50.8998Z" fill="#1769FF"/>
<path d="M215.6 67C220 71.6 222.2 78.1 222.2 86.5V122.8H207V88.6C207 83.7 205.8 79.9 203.4 77.3C201 74.7 197.8 73.3 193.6 73.3C189.4 73.3 186.1 74.6 183.7 77.3C181.3 80 180.1 83.7 180.1 88.6V122.8H164.9V60.9H180.1V68.6C182.1 65.9 184.7 63.8 187.9 62.3C191 60.8 194.5 60 198.3 60C205.4 60 211.2 62.3 215.6 67Z" fill="#1769FF"/>
<path d="M254.301 73.7V103.6C254.301 105.7 254.801 107.2 255.801 108.1C256.801 109 258.401 109.5 260.701 109.5H267.801V122.7H258.201C245.401 122.7 239.001 116.3 239.001 103.5V73.7H231.801V60.8H239.001V45.5H254.301V60.8H267.801V73.6L254.301 73.7Z" fill="#1769FF"/>
<path d="M318.901 85.9998C318.801 81.9998 317.401 78.7998 314.701 76.2998C311.901 73.8998 308.601 72.6998 304.601 72.6998C300.801 72.6998 297.701 73.8998 295.101 76.1998C292.501 78.4998 291.001 81.7998 290.401 85.9998H318.901ZM334.201 96.4998H290.201C290.601 101 292.101 104.5 294.801 107C297.501 109.5 300.801 110.8 304.701 110.8C310.301 110.8 314.401 108.3 316.701 103.3H333.101C331.401 109.3 328.001 114.1 323.101 118C318.201 121.8 312.101 123.7 305.001 123.7C299.201 123.7 294.001 122.4 289.401 119.7C284.801 117.1 281.201 113.3 278.701 108.5C276.101 103.7 274.801 98.0998 274.801 91.7998C274.801 85.4998 276.101 79.7998 278.601 74.8998C281.101 69.9998 284.701 66.2998 289.201 63.6998C293.801 61.0998 299.001 59.7998 304.901 59.7998C310.801 59.7998 315.701 61.0998 320.301 63.5998C324.801 66.0998 328.301 69.6998 330.801 74.3998C333.301 78.9998 334.501 84.3998 334.501 90.3998C334.601 92.6998 334.501 94.6998 334.201 96.4998Z" fill="#1769FF"/>
<path d="M368.601 62.8C371.701 60.9 375.301 60 379.401 60V76.4H375.401C370.601 76.4 367.001 77.6 364.601 79.9C362.201 82.2 361.001 86.2 361.001 92V122.8H345.801V60.9H361.001V70.5C362.901 67.2 365.401 64.7 368.601 62.8Z" fill="#1769FF"/>
<path d="M434.4 81.9004C432.9 79.2004 431 77.1004 428.5 75.7004C426.1 74.3004 423.5 73.6004 420.6 73.6004C417.7 73.6004 415.3 74.3004 412.8 75.8004C410.4 77.3004 408.4 79.4004 406.9 82.1004C405.4 84.9004 404.7 88.1004 404.7 91.8004C404.7 95.5004 405.4 98.8004 406.9 101.5C408.4 104.2 410.3 106.4 412.8 107.8C415.2 109.3 417.8 110 420.6 110C423.4 110 426 109.3 428.5 107.8C430.9 106.3 432.9 104.2 434.4 101.4C435.9 98.7004 436.6 95.4004 436.6 91.6004C436.6 87.8004 435.9 84.6004 434.4 81.9004ZM412.9 62.7004C416.3 60.8004 420.3 59.9004 424.7 59.9004C429.8 59.9004 434.5 61.2004 438.7 63.8004C442.9 66.4004 446.2 70.1004 448.6 74.9004C451 79.7004 452.2 85.3004 452.2 91.6004C452.2 97.9004 451 103.5 448.6 108.4C446.2 113.3 442.9 117 438.7 119.7C434.5 122.4 429.9 123.7 424.7 123.7C420.3 123.7 416.4 122.8 413 120.9C409.6 119 406.9 116.7 404.8 113.9V152.2H389.6V60.9004H404.8V69.8004C406.7 67.0004 409.4 64.6004 412.9 62.7004Z" fill="#1769FF"/>
<path d="M504.4 81.9998C503 79.2998 501 77.1998 498.5 75.6998C496 74.1998 493.4 73.4998 490.6 73.4998C487.8 73.4998 485.2 74.1998 482.8 75.5998C480.4 76.9998 478.5 79.0998 477 81.7998C475.5 84.4998 474.8 87.6998 474.8 91.4998C474.8 95.1998 475.5 98.4998 477 101.3C478.5 104.1 480.4 106.2 482.9 107.7C485.3 109.2 487.9 109.9 490.7 109.9C493.5 109.9 496.2 109.2 498.6 107.7C501.1 106.2 503 104.2 504.5 101.4C505.9 98.6998 506.7 95.3998 506.7 91.5998C506.6 87.9998 505.9 84.6998 504.4 81.9998ZM462.9 74.8998C465.3 70.0998 468.6 66.2998 472.8 63.6998C477 61.0998 481.6 59.7998 486.8 59.7998C491.3 59.7998 495.2 60.6998 498.6 62.5998C502 64.4998 504.7 66.7998 506.7 69.5998V60.7998H522V122.6H506.7V113.6C504.7 116.5 502 118.9 498.6 120.8C495.2 122.7 491.2 123.6 486.7 123.6C481.6 123.6 477 122.3 472.9 119.6C468.7 116.9 465.4 113.1 463 108.3C460.6 103.4 459.4 97.7998 459.4 91.4998C459.3 85.1998 460.5 79.6998 462.9 74.8998Z" fill="#1769FF"/>
<path d="M558.3 62.8C561.4 60.9 565 60 569.1 60V76.4H565.1C560.3 76.4 556.7 77.6 554.3 79.9C551.9 82.2 550.7 86.2 550.7 92V122.8H535.5V60.9H550.7V70.5C552.6 67.2 555.1 64.7 558.3 62.8Z" fill="#1769FF"/>
<path d="M616.2 122.7L595.8 96.3996V122.7H580.6V40.0996H595.8V87.0996L616 60.8996H635.8L609.3 91.8996L636 122.7H616.2Z" fill="#1769FF"/>
<path d="M672.701 63.7004V50.0004H685.401V63.7004C685.401 73.8004 686.201 85.0004 691.201 93.9004C696.001 85.0004 696.701 73.9004 696.801 63.7004V50.0004H709.901V63.7004C709.801 78.3004 711.201 93.6004 722.601 102.5L714.201 112.3C708.601 107.9 705.101 101.5 703.001 94.0004C700.701 101.7 697.001 108.5 691.001 112.9C685.101 108.6 681.401 102 679.101 94.5004C677.101 101.5 673.801 107.5 668.601 111.7L659.801 102.5C671.401 93.4004 672.601 78.3004 672.701 63.7004ZM737.901 131.2H724.001V43.4004H737.901V131.2Z" fill="#1769FF"/>
<path d="M792.7 74.5004H806.5V43.4004H820.2V131.4H806.5V85.5004H792.8C791.4 102.2 782.3 112.3 770.1 112.3C756.7 112.3 747.1 100.1 747.2 80.7004C747.1 61.4004 756.7 49.1004 770.1 49.1004C781.9 49.2004 790.9 58.8004 792.7 74.5004ZM770.1 99.8004C776.2 99.8004 780 93.4004 780.1 80.8004C780 68.2004 776.2 61.7004 770.1 61.8004C764.2 61.7004 760.2 68.2004 760.3 80.8004C760.2 93.4004 764.2 99.8004 770.1 99.8004Z" fill="#1769FF"/>
<path d="M833.4 50.4004H874.6V61.6004H847.2V74.9004H871.5V85.7004H847.2V100.6C858.4 100.6 867.8 100.1 878.2 98.6004L879.6 109.6C866.8 111.4 855.1 111.9 840.6 112H833.5V50.4004H833.4ZM903.9 131.4H890.2V84.7004H875.9V73.7004H890.2V43.4004H903.9V131.4Z" fill="#1769FF"/>
</g>
<defs>
<clipPath id="clip0_6206_21777">
<rect width="903.9" height="160" fill="white"/>
</clipPath>
</defs>
</svg>
