<svg width="180" height="24" viewBox="0 0 180 24" fill="none" xmlns="http://www.w3.org/2000/svg">
<g clip-path="url(#clip0_291_22607)">
<path d="M32.4388 19.1914C32.1046 19.1914 31.9614 19.0482 31.9614 18.6901V2.69755C31.9614 2.33951 32.0808 2.19629 32.4388 2.19629H37.0695C41.5808 2.19629 43.013 3.79555 43.013 5.82446V7.39984C43.013 8.6888 42.3924 9.69132 40.817 10.2642C42.7982 10.7893 43.7768 11.8634 43.7768 13.3195V15.4439C43.7768 17.4966 42.3447 19.1914 37.8333 19.1914H32.4388ZM34.4916 4.2252V9.52423H37.2366C39.4087 9.52423 40.459 8.73654 40.459 7.3521V6.20637C40.459 4.82194 39.4087 4.2252 37.0456 4.2252H34.4916ZM34.4916 11.4099V17.1625H37.8095C40.1725 17.1625 41.2228 16.3987 41.2228 15.0142V13.4866C41.2228 12.2454 40.1725 11.4099 37.8095 11.4099H34.4916Z" fill="#0DABE3"/>
<path d="M50.3172 17.1147H57.0245C57.3587 17.1147 57.5258 17.2102 57.5258 17.5683V18.714C57.5258 19.072 57.3587 19.1914 57.0245 19.1914H48.1689C47.8825 19.1914 47.7393 19.0243 47.7393 18.6901V2.69755C47.7393 2.33951 47.8586 2.19629 48.2405 2.19629H49.8398C50.1739 2.19629 50.3172 2.33951 50.3172 2.69755V17.1147Z" fill="#0DABE3"/>
<path d="M62.8725 15.1336C62.8725 16.4941 63.9227 17.3057 66.2619 17.3057C68.625 17.3057 69.6991 16.4703 69.6991 15.1336V2.69755C69.6991 2.33951 69.8185 2.19629 70.1765 2.19629H71.7758C72.1338 2.19629 72.2532 2.33951 72.2532 2.69755V15.5393C72.2532 17.5921 70.7733 19.3823 66.2858 19.3823C61.7983 19.3823 60.3423 17.5921 60.3423 15.5393V2.69755C60.3423 2.33951 60.5094 2.19629 60.8435 2.19629H62.4428C62.777 2.19629 62.9202 2.33951 62.9202 2.69755V15.1336H62.8725Z" fill="#0DABE3"/>
<path d="M77.5282 19.1914C77.194 19.1914 77.0508 19.0482 77.0508 18.6901V2.69755C77.0508 2.33951 77.1701 2.19629 77.5282 2.19629H86.5031C86.8373 2.19629 87.0044 2.31564 87.0044 2.67368V3.79555C87.0044 4.15359 86.8373 4.27294 86.5031 4.27294H79.6048V9.3094H86.0257C86.3838 9.3094 86.5509 9.42875 86.5509 9.78679V10.8609C86.5509 11.1951 86.3838 11.3383 86.0257 11.3383H79.6048V17.1147H86.7895C87.1237 17.1147 87.2908 17.2102 87.2908 17.5683V18.714C87.2908 19.072 87.1237 19.1914 86.7895 19.1914H77.5282Z" fill="#0DABE3"/>
<path d="M100.181 6.18248C100.181 4.84579 99.3214 4.05809 97.006 4.05809C94.6907 4.05809 93.8314 4.82192 93.8314 6.18248V6.68374C93.8314 7.82948 94.6191 8.16365 95.1681 8.35461L99.942 10.0732C101.517 10.6461 102.83 11.6247 102.83 13.4627V15.5393C102.83 17.5921 101.326 19.3823 96.9583 19.3823C92.5902 19.3823 91.0625 17.5921 91.0625 15.5393V14.0833C91.0625 13.7252 91.2296 13.582 91.5638 13.582H93.1153C93.4495 13.582 93.5927 13.7252 93.5927 14.0833V15.2052C93.5927 16.5418 94.5952 17.3295 96.9583 17.3295C99.3214 17.3295 100.348 16.5657 100.348 15.2052V14.0356C100.348 12.7943 99.1781 12.3647 98.1518 11.9828L93.712 10.3596C92.5663 9.92999 91.3728 8.80813 91.3728 7.25661V5.82444C91.3728 3.77166 92.7334 1.98145 97.006 1.98145C101.279 1.98145 102.687 3.77166 102.687 5.82444V6.92243C102.687 7.25661 102.544 7.39983 102.21 7.39983H100.658C100.3 7.39983 100.181 7.25661 100.181 6.92243V6.18248Z" fill="black"/>
<path d="M118.631 15.5389C118.631 17.2098 117.629 18.7135 114.836 19.2148L118.059 21.9598C118.321 22.1746 118.345 22.4133 118.106 22.6281L117.295 23.4874C117.104 23.6784 116.841 23.7023 116.603 23.5113L111.9 19.358C107.962 19.1909 106.673 17.4962 106.673 15.5389V5.84787C106.673 3.7951 108.153 2.00488 112.616 2.00488C117.128 2.00488 118.584 3.7951 118.584 5.84787V15.5389H118.631ZM109.275 15.1809C109.275 16.5653 110.325 17.353 112.664 17.353C115.027 17.353 116.077 16.5653 116.077 15.1809V6.20592C116.077 4.82149 115.027 4.03379 112.664 4.03379C110.325 4.03379 109.275 4.82149 109.275 6.20592V15.1809Z" fill="black"/>
<path d="M125.554 15.1336C125.554 16.4941 126.604 17.3057 128.943 17.3057C131.306 17.3057 132.38 16.4703 132.38 15.1336V2.69755C132.38 2.33951 132.5 2.19629 132.858 2.19629H134.457C134.815 2.19629 134.934 2.33951 134.934 2.69755V15.5393C134.934 17.5921 133.478 19.3823 128.967 19.3823C124.479 19.3823 123.023 17.5921 123.023 15.5393V2.69755C123.023 2.33951 123.191 2.19629 123.525 2.19629H125.124C125.458 2.19629 125.601 2.33951 125.601 2.69755V15.1336H125.554Z" fill="black"/>
<path d="M145.294 2.19629C145.628 2.19629 145.819 2.33951 145.914 2.67368L150.999 18.6901C151.094 19.0004 150.975 19.1675 150.617 19.1675H148.97C148.635 19.1675 148.468 19.0004 148.397 18.6901L147.156 14.8233H141.618L140.401 18.6901C140.329 19.0004 140.162 19.1675 139.828 19.1675H138.3C137.966 19.1675 137.823 19.0004 137.942 18.6901L143.026 2.67368C143.122 2.33951 143.313 2.19629 143.647 2.19629H145.294ZM145.127 8.35462C144.816 7.42371 144.434 4.98902 144.411 4.70259C144.363 4.91741 144.029 7.23276 143.671 8.30688L142.191 12.8898H146.583L145.127 8.35462Z" fill="black"/>
<path d="M156.751 12.4602V18.6663C156.751 19.0243 156.656 19.1675 156.274 19.1675H154.675C154.34 19.1675 154.197 19.0243 154.197 18.6663V2.69755C154.197 2.33951 154.317 2.19629 154.675 2.19629H159.998C164.509 2.19629 165.941 3.9865 165.941 6.03928V8.64106C165.941 10.1687 165.13 11.5293 162.862 12.126L166.013 18.6663C166.132 18.9527 165.917 19.1675 165.535 19.1675H163.984C163.626 19.1675 163.554 18.9766 163.411 18.6663L160.451 12.4602H159.998H156.751ZM156.751 4.27294V10.3835H159.998C162.361 10.3835 163.411 9.59584 163.411 8.21141V6.44506C163.411 5.10837 162.361 4.27294 159.998 4.27294H156.751Z" fill="black"/>
<path d="M170.262 19.1914C169.927 19.1914 169.784 19.0482 169.784 18.6901V2.69755C169.784 2.33951 169.904 2.19629 170.262 2.19629H179.237C179.571 2.19629 179.738 2.31564 179.738 2.67368V3.79555C179.738 4.15359 179.571 4.27294 179.237 4.27294H172.338V9.3094H178.759C179.117 9.3094 179.284 9.42875 179.284 9.78679V10.8609C179.284 11.1951 179.117 11.3383 178.759 11.3383H172.338V17.1147H179.499C179.833 17.1147 180 17.2102 180 17.5683V18.714C180 19.072 179.833 19.1914 179.499 19.1914H170.262Z" fill="black"/>
<path d="M22.4373 21.3632H0V0H22.4373V21.3632ZM2.36308 19.1195H20.0743V2.24373H2.36308V19.1195Z" fill="#0DABE3"/>
</g>
<defs>
<clipPath id="clip0_291_22607">
<rect width="180" height="23.6308" fill="white"/>
</clipPath>
</defs>
</svg>
