<svg width="180" height="24" viewBox="0 0 180 24" fill="none" xmlns="http://www.w3.org/2000/svg">
<g clip-path="url(#clip0_6206_21711)">
<path d="M32.4383 19.1914C32.1042 19.1914 31.9609 19.0482 31.9609 18.6901V2.69755C31.9609 2.33951 32.0803 2.19629 32.4383 2.19629H37.069C41.5804 2.19629 43.0125 3.79555 43.0125 5.82446V7.39984C43.0125 8.6888 42.3919 9.69132 40.8165 10.2642C42.7977 10.7893 43.7763 11.8634 43.7763 13.3195V15.4439C43.7763 17.4966 42.3442 19.1914 37.8328 19.1914H32.4383ZM34.4911 4.2252V9.52423H37.2361C39.4082 9.52423 40.4585 8.73654 40.4585 7.3521V6.20637C40.4585 4.82194 39.4082 4.2252 37.0451 4.2252H34.4911ZM34.4911 11.4099V17.1625H37.809C40.1721 17.1625 41.2223 16.3987 41.2223 15.0142V13.4866C41.2223 12.2454 40.1721 11.4099 37.809 11.4099H34.4911Z" fill="black"/>
<path d="M50.3162 17.1147H57.0235C57.3577 17.1147 57.5248 17.2102 57.5248 17.5683V18.714C57.5248 19.072 57.3577 19.1914 57.0235 19.1914H48.1679C47.8815 19.1914 47.7383 19.0243 47.7383 18.6901V2.69755C47.7383 2.33951 47.8576 2.19629 48.2395 2.19629H49.8388C50.173 2.19629 50.3162 2.33951 50.3162 2.69755V17.1147Z" fill="black"/>
<path d="M62.872 15.1336C62.872 16.4941 63.9222 17.3057 66.2614 17.3057C68.6245 17.3057 69.6986 16.4703 69.6986 15.1336V2.69755C69.6986 2.33951 69.818 2.19629 70.176 2.19629H71.7753C72.1333 2.19629 72.2527 2.33951 72.2527 2.69755V15.5393C72.2527 17.5921 70.7728 19.3823 66.2853 19.3823C61.7978 19.3823 60.3418 17.5921 60.3418 15.5393V2.69755C60.3418 2.33951 60.5089 2.19629 60.8431 2.19629H62.4423C62.7765 2.19629 62.9197 2.33951 62.9197 2.69755V15.1336H62.872Z" fill="black"/>
<path d="M77.5282 19.1914C77.194 19.1914 77.0508 19.0482 77.0508 18.6901V2.69755C77.0508 2.33951 77.1701 2.19629 77.5282 2.19629H86.5031C86.8373 2.19629 87.0044 2.31564 87.0044 2.67368V3.79555C87.0044 4.15359 86.8373 4.27294 86.5031 4.27294H79.6048V9.3094H86.0257C86.3838 9.3094 86.5509 9.42875 86.5509 9.78679V10.8609C86.5509 11.1951 86.3838 11.3383 86.0257 11.3383H79.6048V17.1147H86.7895C87.1237 17.1147 87.2908 17.2102 87.2908 17.5683V18.714C87.2908 19.072 87.1237 19.1914 86.7895 19.1914H77.5282Z" fill="black"/>
<path d="M100.181 6.18248C100.181 4.84579 99.3214 4.05809 97.006 4.05809C94.6907 4.05809 93.8314 4.82192 93.8314 6.18248V6.68374C93.8314 7.82948 94.6191 8.16365 95.1681 8.35461L99.942 10.0732C101.517 10.6461 102.83 11.6247 102.83 13.4627V15.5393C102.83 17.5921 101.326 19.3823 96.9583 19.3823C92.5902 19.3823 91.0625 17.5921 91.0625 15.5393V14.0833C91.0625 13.7252 91.2296 13.582 91.5638 13.582H93.1153C93.4495 13.582 93.5927 13.7252 93.5927 14.0833V15.2052C93.5927 16.5418 94.5952 17.3295 96.9583 17.3295C99.3214 17.3295 100.348 16.5657 100.348 15.2052V14.0356C100.348 12.7943 99.1781 12.3647 98.1518 11.9828L93.712 10.3596C92.5663 9.92999 91.3728 8.80813 91.3728 7.25661V5.82444C91.3728 3.77166 92.7334 1.98145 97.006 1.98145C101.279 1.98145 102.687 3.77166 102.687 5.82444V6.92243C102.687 7.25661 102.544 7.39983 102.21 7.39983H100.658C100.3 7.39983 100.181 7.25661 100.181 6.92243V6.18248Z" fill="black"/>
<path d="M118.631 15.5389C118.631 17.2098 117.628 18.7135 114.835 19.2148L118.058 21.9598C118.32 22.1746 118.344 22.4133 118.105 22.6281L117.294 23.4874C117.103 23.6784 116.84 23.7023 116.602 23.5113L111.899 19.358C107.961 19.1909 106.672 17.4962 106.672 15.5389V5.84787C106.672 3.7951 108.152 2.00488 112.615 2.00488C117.127 2.00488 118.583 3.7951 118.583 5.84787V15.5389H118.631ZM109.274 15.1809C109.274 16.5653 110.324 17.353 112.663 17.353C115.026 17.353 116.076 16.5653 116.076 15.1809V6.20592C116.076 4.82149 115.026 4.03379 112.663 4.03379C110.324 4.03379 109.274 4.82149 109.274 6.20592V15.1809Z" fill="black"/>
<path d="M125.554 15.1336C125.554 16.4941 126.604 17.3057 128.943 17.3057C131.306 17.3057 132.38 16.4703 132.38 15.1336V2.69755C132.38 2.33951 132.5 2.19629 132.858 2.19629H134.457C134.815 2.19629 134.934 2.33951 134.934 2.69755V15.5393C134.934 17.5921 133.478 19.3823 128.967 19.3823C124.479 19.3823 123.023 17.5921 123.023 15.5393V2.69755C123.023 2.33951 123.191 2.19629 123.525 2.19629H125.124C125.458 2.19629 125.601 2.33951 125.601 2.69755V15.1336H125.554Z" fill="black"/>
<path d="M145.294 2.19629C145.628 2.19629 145.819 2.33951 145.914 2.67368L150.999 18.6901C151.094 19.0004 150.975 19.1675 150.617 19.1675H148.97C148.635 19.1675 148.468 19.0004 148.397 18.6901L147.156 14.8233H141.618L140.401 18.6901C140.329 19.0004 140.162 19.1675 139.828 19.1675H138.3C137.966 19.1675 137.823 19.0004 137.942 18.6901L143.026 2.67368C143.122 2.33951 143.313 2.19629 143.647 2.19629H145.294ZM145.127 8.35462C144.816 7.42371 144.434 4.98902 144.411 4.70259C144.363 4.91741 144.029 7.23276 143.671 8.30688L142.191 12.8898H146.583L145.127 8.35462Z" fill="black"/>
<path d="M156.751 12.4602V18.6663C156.751 19.0243 156.656 19.1675 156.274 19.1675H154.675C154.34 19.1675 154.197 19.0243 154.197 18.6663V2.69755C154.197 2.33951 154.317 2.19629 154.675 2.19629H159.998C164.509 2.19629 165.941 3.9865 165.941 6.03928V8.64106C165.941 10.1687 165.13 11.5293 162.862 12.126L166.013 18.6663C166.132 18.9527 165.917 19.1675 165.535 19.1675H163.984C163.626 19.1675 163.554 18.9766 163.411 18.6663L160.451 12.4602H159.998H156.751ZM156.751 4.27294V10.3835H159.998C162.361 10.3835 163.411 9.59584 163.411 8.21141V6.44506C163.411 5.10837 162.361 4.27294 159.998 4.27294H156.751Z" fill="black"/>
<path d="M170.261 19.1914C169.926 19.1914 169.783 19.0482 169.783 18.6901V2.69755C169.783 2.33951 169.903 2.19629 170.261 2.19629H179.236C179.57 2.19629 179.737 2.31564 179.737 2.67368V3.79555C179.737 4.15359 179.57 4.27294 179.236 4.27294H172.337V9.3094H178.758C179.116 9.3094 179.283 9.42875 179.283 9.78679V10.8609C179.283 11.1951 179.116 11.3383 178.758 11.3383H172.337V17.1147H179.498C179.832 17.1147 179.999 17.2102 179.999 17.5683V18.714C179.999 19.072 179.832 19.1914 179.498 19.1914H170.261Z" fill="black"/>
<path d="M22.4373 21.3632H0V0H22.4373V21.3632ZM2.36308 19.1195H20.0743V2.24373H2.36308V19.1195Z" fill="black"/>
</g>
<defs>
<clipPath id="clip0_6206_21711">
<rect width="180" height="23.6308" fill="white"/>
</clipPath>
</defs>
</svg>
