<svg width="14" height="14" viewBox="0 0 14 14" fill="none" xmlns="http://www.w3.org/2000/svg">
<g clip-path="url(#clip0_20127_1090)">
<path d="M13.2223 7.02323C13.2223 3.57362 10.4369 0.777832 7.00005 0.777832C3.56325 0.777832 0.777832 3.57362 0.777832 7.02323C0.777832 9.95076 2.7879 12.4099 5.49797 13.0857V8.931H4.21464V7.02323H5.49797V6.20108C5.49797 4.07618 6.45561 3.09058 8.53617 3.09058C8.92992 3.09058 9.61047 3.16865 9.88998 3.24672V4.97396C9.74415 4.95932 9.48894 4.94956 9.17054 4.94956C8.14971 4.94956 7.75596 5.33746 7.75596 6.34502V7.02323H9.7879L9.4379 8.931H7.75353V13.2223C10.8355 12.849 13.2223 10.2167 13.2223 7.02323Z" fill="white"/>
</g>
<defs>
<clipPath id="clip0_20127_1090">
<rect width="14" height="14" fill="white"/>
</clipPath>
</defs>
</svg>
