<svg width="15" height="14" viewBox="0 0 15 14" fill="none" xmlns="http://www.w3.org/2000/svg">
<path d="M8.21002 0.777832C8.90998 0.779699 9.26525 0.783432 9.57199 0.792143L9.6927 0.796498C9.83207 0.801476 9.96957 0.807698 10.1357 0.815164C10.7977 0.846275 11.2494 0.950806 11.6458 1.10449C12.0564 1.26253 12.4023 1.47657 12.7483 1.8219C13.0648 2.13283 13.3096 2.50911 13.4657 2.92445C13.6193 3.32079 13.7239 3.77251 13.755 4.43517C13.7625 4.60067 13.7687 4.73818 13.7736 4.87818L13.7774 4.99889C13.7867 5.30501 13.7904 5.66029 13.7917 6.36027L13.7923 6.82444V7.63953C13.7938 8.09337 13.7891 8.54721 13.778 9.00092L13.7743 9.12163C13.7693 9.26163 13.7631 9.39913 13.7556 9.56464C13.7245 10.2273 13.6187 10.6784 13.4657 11.0754C13.3096 11.4907 13.0648 11.867 12.7483 12.1779C12.4373 12.4944 12.0611 12.7393 11.6458 12.8953C11.2494 13.049 10.7977 13.1535 10.1357 13.1846L9.6927 13.2033L9.57199 13.207C9.26525 13.2158 8.90998 13.2201 8.21002 13.2214L7.74586 13.222H6.93142C6.47738 13.2236 6.02334 13.2188 5.56944 13.2077L5.44874 13.2039C5.30103 13.1983 5.15337 13.1919 5.00574 13.1846C4.34373 13.1535 3.89201 13.049 3.49506 12.8953C3.07995 12.7392 2.70391 12.4943 2.39316 12.1779C2.07643 11.867 1.83139 11.4908 1.67515 11.0754C1.52147 10.679 1.41694 10.2273 1.38583 9.56464L1.36716 9.12163L1.36405 9.00092C1.35258 8.54722 1.3474 8.09338 1.3485 7.63953V6.36027C1.34678 5.90644 1.35134 5.4526 1.36219 4.99889L1.36654 4.87818C1.37152 4.73818 1.37774 4.60067 1.38521 4.43517C1.41632 3.77251 1.52085 3.32141 1.67453 2.92445C1.83113 2.50894 2.0766 2.13265 2.39378 1.8219C2.70435 1.50553 3.08017 1.26071 3.49506 1.10449C3.89201 0.950806 4.3431 0.846275 5.00574 0.815164C5.17124 0.807698 5.30937 0.801476 5.44874 0.796498L5.56944 0.792765C6.02314 0.78171 6.47697 0.776939 6.93079 0.778454L8.21002 0.777832ZM7.57041 3.88887C6.74533 3.88887 5.95405 4.21664 5.37063 4.80007C4.78721 5.3835 4.45945 6.17481 4.45945 6.9999C4.45945 7.825 4.78721 8.61631 5.37063 9.19974C5.95405 9.78317 6.74533 10.1109 7.57041 10.1109C8.39548 10.1109 9.18677 9.78317 9.77018 9.19974C10.3536 8.61631 10.6814 7.825 10.6814 6.9999C10.6814 6.17481 10.3536 5.3835 9.77018 4.80007C9.18677 4.21664 8.39548 3.88887 7.57041 3.88887ZM7.57041 5.13328C7.81553 5.13324 8.05826 5.18148 8.28474 5.27525C8.51122 5.36902 8.71701 5.50648 8.89036 5.67978C9.06372 5.85309 9.20124 6.05884 9.29509 6.28529C9.38893 6.51174 9.43725 6.75446 9.43729 6.99959C9.43733 7.24472 9.38909 7.48746 9.29532 7.71394C9.20156 7.94043 9.0641 8.14622 8.8908 8.31958C8.71751 8.49295 8.51176 8.63047 8.28531 8.72432C8.05886 8.81816 7.81615 8.86648 7.57103 8.86653C7.07598 8.86653 6.60121 8.66986 6.25116 8.3198C5.90111 7.96975 5.70446 7.49496 5.70446 6.9999C5.70446 6.50484 5.90111 6.03006 6.25116 5.68C6.60121 5.32994 7.07598 5.13328 7.57103 5.13328M10.8375 2.95556C10.6313 2.95556 10.4334 3.0375 10.2876 3.18336C10.1417 3.32922 10.0598 3.52704 10.0598 3.73332C10.0598 3.93959 10.1417 4.13742 10.2876 4.28327C10.4334 4.42913 10.6313 4.51108 10.8375 4.51108C11.0438 4.51108 11.2416 4.42913 11.3875 4.28327C11.5333 4.13742 11.6153 3.93959 11.6153 3.73332C11.6153 3.52704 11.5333 3.32922 11.3875 3.18336C11.2416 3.0375 11.0438 2.95556 10.8375 2.95556Z" fill="white"/>
</svg>
