<svg width="80" height="80" viewBox="0 0 80 80" fill="none" xmlns="http://www.w3.org/2000/svg">
<g clip-path="url(#clip0_195_20891)">
<path d="M55.7504 34.5772V23.7315C55.7504 19.472 52.3141 16 48.0546 16H32.52C28.2605 16 24.8242 19.472 24.8242 23.7315V34.5772C26.7571 35.651 28.0815 37.6555 28.0815 40.0179V44.3132C28.9763 43.4541 30.2291 42.8814 31.5893 42.8814H48.9853C50.3455 42.8814 51.5625 43.4183 52.4931 44.3132V40.0179C52.4931 37.6555 53.8175 35.6152 55.7504 34.5772Z" fill="white"/>
<path d="M48.9858 44.4561H31.5899C29.657 44.4561 28.082 46.031 28.082 47.9639V58.9885H52.4937V47.9639C52.4937 46.031 50.9187 44.4561 48.9858 44.4561Z" fill="white"/>
<path d="M21.8525 35.3643C19.2753 35.3643 17.1992 37.4403 17.1992 40.0175C17.1992 42.2367 18.7742 44.1696 20.9576 44.5634L21.6019 44.7065V58.9884H23.5348V63.9996H25.2171L26.5057 58.9884V40.0175C26.5057 37.4403 24.4296 35.3643 21.8525 35.3643Z" fill="white"/>
<path d="M58.7197 35.3643C56.1425 35.3643 54.0664 37.4403 54.0664 40.0175V58.9884H54.1022L55.3908 63.9996H57.0731V58.9884H59.006V44.7065L59.6503 44.5634C61.8337 44.1338 63.4087 42.2009 63.4087 40.0175C63.3729 37.4403 61.2968 35.3643 58.7197 35.3643Z" fill="white"/>
</g>
<defs>
<clipPath id="clip0_195_20891">
<rect width="46.1745" height="48" fill="white" transform="translate(17.1992 16)"/>
</clipPath>
</defs>
</svg>
