<svg width="80" height="80" viewBox="0 0 80 80" fill="none" xmlns="http://www.w3.org/2000/svg">
<path d="M21.5701 62.1595C24.3856 58.7835 32.5027 49.24 38.2443 42.9939C37.7339 42.7801 37.2016 42.6231 36.6569 42.5257C36.5234 42.5018 36.3887 42.4737 36.253 42.4414C30.0193 48.124 21.0838 55.7213 17.8405 58.4266C16.5947 59.4639 15.0615 61.5793 16.7385 63.2577C18.4155 64.9362 20.5333 63.4044 21.5701 62.1595Z" fill="white"/>
<path d="M36.7053 42.2442C38.7067 42.6026 40.5217 43.7396 42.1953 45.638C47.6034 51.668 54.0301 59.2317 56.4738 62.1593C57.5111 63.405 59.627 64.9383 61.3054 63.2613C62.9839 61.5843 61.4492 59.467 60.2034 58.4296C57.2759 55.986 49.6719 49.6038 43.6802 44.1541C39.9994 40.8063 41.3238 40.5605 38.7326 37.9688C29.8071 29.041 25.5418 24.8604 19.0715 18.392C18.0355 17.3556 17.4251 17.3858 16.8794 17.933C16.4448 18.3676 15.8253 19.4145 17.4979 22.0373C21.0757 27.6505 29.328 40.9237 36.7053 42.2442Z" fill="white"/>
<path d="M44.0328 37.3252C45.6274 36.5058 47.3087 36.3463 49.0691 36.2045C50.0048 36.1161 50.8718 35.6746 51.4935 34.9697L63.9958 20.8015L63.8899 20.6621L63.7505 20.5566L53.2227 30.3359C53.2227 30.3359 53.0488 30.4797 52.8274 30.2626C52.6061 30.0456 52.7561 29.8731 52.7561 29.8731L62.4716 19.2879L62.3648 19.1441L62.221 19.0378L51.666 28.7758C51.666 28.7758 51.5007 28.933 51.2827 28.7174C51.0647 28.5018 51.2247 28.3341 51.2247 28.3341L60.959 17.7752L60.8526 17.6315L60.7089 17.5246L50.128 27.2445C50.128 27.2445 49.9502 27.3883 49.7384 27.1731C49.5266 26.958 49.6651 26.7778 49.6651 26.7778L59.4396 16.2453L59.3342 16.1059L59.1943 16L45.0309 28.5056C44.3261 29.1273 43.8846 29.994 43.7961 30.9296C43.6524 32.69 43.4947 34.3713 42.6754 35.9654C42.4837 36.3334 41.2691 37.6055 39.9668 38.9059C40.3011 39.336 40.5977 39.7942 40.8532 40.2753C42.2336 38.8881 43.6485 37.5226 44.0328 37.3252Z" fill="white"/>
</svg>
