<svg width="80" height="80" viewBox="0 0 80 80" fill="none" xmlns="http://www.w3.org/2000/svg">
<g clip-path="url(#clip0_195_20888)">
<path d="M15.5996 16V63.0588H17.2652H25.4419L20.8236 45.4165C37.7826 36.2334 38.9182 17.829 38.9182 17.829V17.6766H40.281V17.829C40.281 17.829 41.4166 36.2334 58.3756 45.4165L53.7573 63.0588H61.934H63.5996V16H15.5996ZM24.1927 19.6199C24.1927 19.6199 24.3062 32.6897 18.4766 41.4156L24.1927 19.6199ZM22.2242 63.0588H20.3693L18.5144 47.055C19.2715 48.9602 22.2242 63.0588 22.2242 63.0588ZM19.0065 42.7873C19.0065 42.7873 27.8267 31.6228 30.628 18.8578C30.628 18.8578 31.3472 33.0326 19.0065 42.7873ZM48.5712 18.8578C51.3725 31.6228 60.1927 42.7873 60.1927 42.7873C47.852 33.0326 48.5712 18.8578 48.5712 18.8578ZM58.8299 63.0588H56.975C56.975 63.0588 59.9277 48.9602 60.7226 47.055L58.8299 63.0588ZM55.0065 19.6199L60.7226 41.4156C54.893 32.6897 55.0065 19.6199 55.0065 19.6199Z" fill="white"/>
</g>
<defs>
<clipPath id="clip0_195_20888">
<rect width="48" height="47.0588" fill="white" transform="translate(15.5996 16)"/>
</clipPath>
</defs>
</svg>
