<svg width="80" height="80" viewBox="0 0 80 80" fill="none" xmlns="http://www.w3.org/2000/svg">
<path d="M57.7637 30.8539C57.7637 33.4212 57.1455 35.8281 55.9091 38.0745C54.7185 40.3209 52.8181 42.1318 50.2079 43.5072C47.6435 44.8825 44.3922 45.5702 40.454 45.5702H32.4173V64H22.8008V16H40.454C44.1632 16 47.3229 16.6418 49.9331 17.9255C52.5433 19.2092 54.4896 20.9742 55.7718 23.2206C57.0998 25.467 57.7637 28.0115 57.7637 30.8539ZM40.0419 37.7994C42.6978 37.7994 44.6669 37.2034 45.9492 36.0115C47.2314 34.7736 47.8725 33.0544 47.8725 30.8539C47.8725 26.1776 45.2623 23.8395 40.0419 23.8395H32.4173V37.7994H40.0419Z" fill="white"/>
</svg>
