<svg width="80" height="80" viewBox="0 0 80 80" fill="none" xmlns="http://www.w3.org/2000/svg">
<g clip-path="url(#clip0_502_22879)">
<path d="M24.2086 23C27.2603 23 29.9359 24.6714 31.3436 27.157C31.9776 26.3427 33.1166 25.807 34.4168 25.807C35.717 25.807 36.856 26.3427 37.49 27.157C38.8869 24.6714 41.5518 23 44.6142 23C49.1381 23 52.813 26.6641 52.813 31.1746C52.813 32.7281 52.3725 34.1852 51.6203 35.4173C51.6633 35.428 51.7062 35.4494 51.7492 35.4816C52.0071 35.6637 52.0823 36.0173 51.8997 36.2744C51.6095 36.703 51.2764 37.0994 50.9111 37.4529C50.9111 37.4636 50.9218 37.4744 50.9218 37.4744C51.0615 38.2243 51.4698 38.7922 52.1468 39.1671C52.2543 39.2207 52.2758 39.3921 52.179 39.5314C52.1361 39.5957 52.0823 39.6707 52.0286 39.735L63.3006 52.1951C63.4295 52.3344 63.5477 52.5058 63.6445 52.6665C64.3751 53.9629 63.9238 55.6021 62.6344 56.3307C61.3342 57.0592 59.6901 56.6092 58.9594 55.3236L50.6747 40.7528C50.578 40.7849 50.492 40.8171 50.3953 40.8492C50.2341 40.8921 50.0729 40.8171 50.0622 40.6992C49.9225 39.9492 49.5142 39.3814 48.8372 39.0064C48.8157 38.9957 48.805 38.985 48.7942 38.9636C48.3214 39.1886 47.8379 39.3707 47.3221 39.4993C47.2791 39.51 47.2254 39.5207 47.1824 39.5207C46.9353 39.5207 46.7096 39.36 46.6344 39.1136C45.9897 39.2743 45.3234 39.36 44.625 39.36C40.1011 39.36 36.4262 35.6959 36.4262 31.1853C36.4262 30.3925 36.5444 29.6211 36.7593 28.8926C36.7271 28.8176 36.7056 28.7319 36.7056 28.6462C36.7056 27.8212 35.6633 27.1355 34.4168 27.1355C33.1811 27.1355 32.128 27.8319 32.128 28.6462C32.128 28.7319 32.1065 28.8176 32.0743 28.8926C32.2892 29.6211 32.4074 30.3925 32.4074 31.1853C32.4074 35.6959 28.7324 39.36 24.2086 39.36C19.6848 39.36 16.0098 35.6959 16.0098 31.1853C16.0098 26.6748 19.6848 23 24.2086 23ZM61.2912 55.1521C61.9682 55.1521 62.5269 54.6057 62.5269 53.92C62.5269 53.2451 61.9789 52.688 61.2912 52.688C60.6142 52.688 60.0555 53.2344 60.0555 53.92C60.0555 54.595 60.6035 55.1521 61.2912 55.1521ZM44.6142 38.0422C48.4074 38.0422 51.5021 34.9673 51.5021 31.1746C51.5021 27.3819 48.4181 24.3071 44.6142 24.3071C40.8211 24.3071 37.7264 27.3819 37.7264 31.1746C37.7264 34.9673 40.8103 38.0422 44.6142 38.0422ZM24.2086 38.0422C28.0017 38.0422 31.0964 34.9673 31.0964 31.1746C31.0964 27.3819 28.0125 24.3071 24.2086 24.3071C20.4047 24.3071 17.3208 27.3819 17.3208 31.1746C17.3208 34.9673 20.4047 38.0422 24.2086 38.0422Z" fill="white"/>
</g>
<defs>
<clipPath id="clip0_502_22879">
<rect width="48" height="33.6842" fill="white" transform="matrix(-1 0 0 1 64 23)"/>
</clipPath>
</defs>
</svg>
