<svg width="128" height="128" viewBox="0 0 128 128" fill="none" xmlns="http://www.w3.org/2000/svg">
<path d="M61.5966 9V2.55103L63.9571 2.55103C65.3289 2.55103 65.9969 3.29034 65.9969 4.24344C65.9969 5.04511 65.507 5.45485 64.9102 5.60627V5.66862C65.5515 5.70425 66.2463 6.26542 66.2463 7.26305C66.2463 8.25178 65.5694 9 64.064 9H61.5966ZM63.9749 8.1627C64.9013 8.1627 65.2754 7.75296 65.2754 7.21852C65.2754 6.6039 64.7855 6.10509 64.0106 6.10509L62.5765 6.10509V8.1627H63.9749ZM63.8769 5.33905C64.5272 5.33905 65.0349 4.93822 65.0349 4.3236C65.0349 3.78916 64.6697 3.38833 63.8948 3.38833H62.5765V5.33905L63.8769 5.33905Z" fill="white"/>
<path d="M67.5878 9.08731L68.23 2.67039L69.2049 2.76796L68.647 8.34288L71.5453 8.63291L71.461 9.47491L67.5878 9.08731Z" fill="white"/>
<path d="M77.6224 4.0614L78.5828 4.2556L77.7428 8.4115C77.4746 9.7386 76.2887 10.4803 74.7783 10.1749C73.2505 9.86592 72.4545 8.72349 72.7227 7.39639L73.5626 3.24049L74.523 3.43468L73.6989 7.51201C73.526 8.36764 73.9944 9.10758 74.9548 9.30177C75.9064 9.4942 76.6254 8.99436 76.7983 8.13873L77.6224 4.0614Z" fill="white"/>
<path d="M78.1457 10.8103L80.0461 4.6477L83.9103 5.83995L83.6609 6.64858L80.733 5.7452L80.1581 7.60931L82.8818 8.44966L82.6351 9.24977L79.9114 8.40942L79.3313 10.2905L82.2933 11.2044L82.0439 12.0131L78.1457 10.8103Z" fill="white"/>
<path d="M91.2612 13.7388C90.9562 13.5726 90.8343 13.1816 91.0083 12.8808C91.1665 12.5714 91.561 12.4617 91.866 12.6279C92.1633 12.7898 92.2851 13.1807 92.119 13.4858C91.9529 13.7909 91.5585 13.9007 91.2612 13.7388Z" fill="white"/>
<path d="M103.218 18.9378C103.554 18.4405 103.374 17.8365 102.808 17.3612C102.201 16.8515 101.561 16.838 101.206 17.2611C100.811 17.7319 101.174 18.3388 101.483 18.7608L101.852 19.2913C102.36 19.974 102.853 20.9805 102.11 21.8802C101.405 22.7071 100.228 22.7658 99.0609 21.7866C97.9557 20.8589 97.7234 19.7221 98.4313 18.7812L99.1818 19.4111C98.7773 19.9903 99.0306 20.6447 99.6105 21.1315C100.238 21.6583 100.964 21.7212 101.378 21.2424C101.732 20.8068 101.478 20.2915 101.067 19.7141L100.612 19.0646C100.004 18.182 99.8433 17.3614 100.421 16.6721C101.137 15.8191 102.376 15.894 103.372 16.7301C104.375 17.5718 104.597 18.7349 103.948 19.5505L103.218 18.9378Z" fill="white"/>
<path d="M104.45 23.7351L105.121 24.4238L104.983 25.4301C105.565 25.4531 106.214 25.1871 106.845 24.5713C107.967 23.4766 107.995 22.2925 107.223 21.5017C106.446 20.7046 105.262 20.7024 104.14 21.7972C103.018 22.892 102.99 24.076 103.768 24.8731C103.911 25.0198 104.064 25.1383 104.236 25.2255L104.45 23.7351ZM107.523 25.2665C106.675 26.0938 105.729 26.4442 104.858 26.3609L104.657 27.7758L103.955 27.0552L104.085 26.1686C103.738 26.0225 103.413 25.7979 103.124 25.5014C101.949 24.2961 101.989 22.539 103.462 21.1021C104.941 19.659 106.692 19.6682 107.867 20.8735C109.03 22.0661 109.002 23.8233 107.523 25.2665Z" fill="white"/>
<path d="M112.928 26.8409L113.539 27.607L110.225 30.251C109.166 31.0953 107.781 30.9012 106.82 29.6963C105.849 28.4775 105.973 27.0905 107.032 26.2462L110.346 23.6023L110.957 24.3684L107.705 26.9624C107.023 27.5067 106.906 28.3747 107.517 29.1408C108.122 29.9 108.994 29.9792 109.676 29.4349L112.928 26.8409Z" fill="white"/>
<path d="M109.015 32.378L108.45 31.5025L115.123 29.9486L115.737 30.899L111.581 36.3515L111.016 35.476L112.126 34.0589L110.763 31.9487L109.015 32.378ZM111.606 31.7435L112.66 33.3748L114.455 31.0805L114.43 31.0431L111.606 31.7435Z" fill="white"/>
<path d="M111.8 36.7558L117.538 33.8131L118.587 35.8583C119.269 37.19 118.861 38.23 117.807 38.7705C117.034 39.1668 116.269 39.1188 115.654 38.5534L113.982 41.0126L113.474 40.0217L115.041 37.7468L115.012 37.6914L114.411 36.5182L112.247 37.6278L111.8 36.7558ZM115.164 36.132L115.72 37.218C116.155 38.0662 116.706 38.224 117.356 37.8907C118.006 37.5574 118.232 37.0013 117.797 36.1531L117.24 35.0672L115.164 36.132Z" fill="white"/>
<path d="M114.363 41.8906L120.366 39.5341L121.843 43.2986L121.056 43.6079L119.936 40.7554L118.121 41.4682L119.162 44.1217L118.382 44.4276L117.341 41.7742L115.509 42.4935L116.641 45.3791L115.853 45.6884L114.363 41.8906Z" fill="white"/>
<path d="M120.253 53.9684C120.193 53.6263 120.423 53.2873 120.766 53.2357C121.107 53.1666 121.439 53.4066 121.499 53.7487C121.558 54.082 121.328 54.421 120.986 54.4814C120.644 54.5417 120.312 54.3017 120.253 53.9684Z" fill="white"/>
<path d="M118.986 62.9345L125.433 63.0953L125.375 65.4551C125.34 66.8264 124.585 67.4758 123.632 67.452C122.83 67.432 122.433 66.9321 122.296 66.3317L122.234 66.3301C122.183 66.9704 121.604 67.6509 120.607 67.626C119.618 67.6014 118.887 66.906 118.925 65.4011L118.986 62.9345ZM119.764 65.3329C119.741 66.259 120.141 66.6432 120.676 66.6565C121.29 66.6719 121.801 66.1946 121.82 65.4199L121.856 63.9862L119.799 63.9349L119.764 65.3329ZM122.589 65.3054C122.573 65.9554 122.961 66.473 123.576 66.4883C124.11 66.5016 124.52 66.1466 124.539 65.3718L124.572 64.054L122.622 64.0053L122.589 65.3054Z" fill="white"/>
<path d="M118.75 68.9214L125.149 69.7235L125.027 70.6957L119.467 69.9989L119.105 72.889L118.266 72.7838L118.75 68.9214Z" fill="white"/>
<path d="M123.523 79.0778L123.305 80.0331L119.171 79.0894C117.851 78.7881 117.14 77.5839 117.482 76.0816C117.829 74.5618 118.991 73.7946 120.311 74.096L124.444 75.0397L124.226 75.9949L120.171 75.0691C119.32 74.8748 118.569 75.3246 118.351 76.2798C118.135 77.2264 118.617 77.9577 119.468 78.152L123.523 79.0778Z" fill="white"/>
<path d="M116.767 79.4337L122.88 81.488L121.592 85.3215L120.79 85.0519L121.766 82.1473L119.917 81.5258L119.009 84.2279L118.215 83.9611L119.123 81.2591L117.257 80.632L116.27 83.5705L115.468 83.3009L116.767 79.4337Z" fill="white"/>
<path d="M113.518 92.4763C113.692 92.1754 114.086 92.0634 114.382 92.2448C114.687 92.4108 114.787 92.808 114.614 93.1088C114.444 93.402 114.051 93.514 113.75 93.3403C113.449 93.1666 113.349 92.7694 113.518 92.4763Z" fill="white"/>
<path d="M108.019 104.308C108.508 104.656 109.116 104.492 109.605 103.938C110.129 103.343 110.159 102.704 109.745 102.338C109.284 101.932 108.668 102.279 108.239 102.577L107.7 102.933C107.005 103.424 105.986 103.892 105.106 103.126C104.297 102.401 104.268 101.222 105.275 100.08C106.23 98.998 107.372 98.7941 108.295 99.5255L107.646 100.26C107.078 99.8413 106.417 100.078 105.916 100.646C105.374 101.26 105.293 101.985 105.761 102.41C106.188 102.775 106.709 102.534 107.297 102.138L107.957 101.699C108.854 101.113 109.679 100.973 110.353 101.568C111.188 102.305 111.082 103.542 110.222 104.518C109.355 105.499 108.187 105.692 107.388 105.023L108.019 104.308Z" fill="white"/>
<path d="M103.195 105.416L102.49 106.071L101.488 105.907C101.45 106.489 101.7 107.144 102.3 107.791C103.366 108.94 104.548 108.997 105.358 108.246C106.174 107.488 106.206 106.304 105.14 105.155C104.073 104.006 102.891 103.949 102.075 104.706C101.924 104.846 101.802 104.995 101.711 105.165L103.195 105.416ZM101.588 108.451C100.782 107.583 100.456 106.628 100.561 105.759L99.1514 105.524L99.8891 104.839L100.772 104.992C100.927 104.648 101.159 104.328 101.463 104.047C102.697 102.901 104.452 102.986 105.851 104.495C107.257 106.01 107.204 107.76 105.97 108.905C104.749 110.038 102.993 109.966 101.588 108.451Z" fill="white"/>
<path d="M99.8832 113.819L99.1022 114.411L96.5425 111.03C95.7251 109.951 95.9537 108.571 97.182 107.64C98.4244 106.699 99.8075 106.858 100.625 107.937L103.185 111.317L102.404 111.909L99.8923 108.593C99.3653 107.897 98.5007 107.759 97.7197 108.35C96.9459 108.937 96.8449 109.807 97.3719 110.503L99.8832 113.819Z" fill="white"/>
<path d="M94.4423 109.764L95.3315 109.221L96.7176 115.932L95.7524 116.522L90.4067 112.231L91.2959 111.687L92.6844 112.833L94.8277 111.523L94.4423 109.764ZM95.0117 112.371L93.3549 113.383L95.603 115.235L95.641 115.212L95.0117 112.371Z" fill="white"/>
<path d="M89.9981 112.443L92.7956 118.253L90.7252 119.25C89.377 119.9 88.3477 119.466 87.8338 118.399C87.4571 117.616 87.5242 116.852 88.1049 116.251L85.6887 114.518L86.6918 114.035L88.9264 115.658L88.9825 115.631L90.1702 115.059L89.1154 112.868L89.9981 112.443ZM90.5373 115.821L89.4379 116.351C88.5792 116.764 88.4077 117.312 88.7246 117.97C89.0414 118.628 89.5916 118.867 90.4503 118.454L91.5497 117.924L90.5373 115.821Z" fill="white"/>
<path d="M84.8031 114.877L87.0083 120.938L83.2083 122.321L82.919 121.526L85.7983 120.478L85.1312 118.644L82.4528 119.62L82.1665 118.833L84.8449 117.858L84.1718 116.008L81.259 117.068L80.9697 116.273L84.8031 114.877Z" fill="white"/>
<path d="M72.5854 120.462C72.9289 120.41 73.262 120.648 73.305 120.993C73.3656 121.335 73.1174 121.661 72.7739 121.713C72.4392 121.763 72.1061 121.525 72.0543 121.182C72.0025 120.838 72.2507 120.513 72.5854 120.462Z" fill="white"/>
<path d="M63.6535 118.978L63.3321 125.419L60.9746 125.302C59.6045 125.233 58.9741 124.461 59.0216 123.51C59.0616 122.709 59.5713 122.324 60.1749 122.203L60.178 122.14C59.5392 122.073 58.8733 121.478 58.923 120.481C58.9723 119.494 59.6857 118.78 61.1892 118.855L63.6535 118.978ZM61.2364 119.696C60.3112 119.65 59.9171 120.04 59.8905 120.574C59.8599 121.188 60.3243 121.711 61.0983 121.749L62.5306 121.821L62.6331 119.766L61.2364 119.696ZM61.1936 122.521C60.5441 122.489 60.0171 122.864 59.9864 123.477C59.9598 124.011 60.3046 124.43 61.0786 124.468L62.3952 124.534L62.4924 122.586L61.1936 122.521Z" fill="white"/>
<path d="M57.6737 118.592L56.7127 124.969L55.7439 124.823L56.5787 119.283L53.6986 118.848L53.8247 118.012L57.6737 118.592Z" fill="white"/>
<path d="M47.4026 123.108L46.453 122.867L47.499 118.758C47.833 117.446 49.0544 116.764 50.5477 117.144C52.0583 117.529 52.7964 118.71 52.4623 120.022L51.4164 124.131L50.4669 123.889L51.4931 119.858C51.7084 119.012 51.2775 118.249 50.328 118.008C49.3871 117.768 48.6441 118.231 48.4288 119.077L47.4026 123.108Z" fill="white"/>
<path d="M47.2159 116.344L45.0107 122.405L41.2108 121.021L41.5001 120.226L44.3794 121.274L45.0464 119.441L42.368 118.466L42.6543 117.679L45.3327 118.654L46.0059 116.804L43.0931 115.744L43.3825 114.949L47.2159 116.344Z" fill="white"/>
<path d="M34.2619 112.766C34.5583 112.947 34.6605 113.343 34.4718 113.635C34.2983 113.936 33.8989 114.026 33.6025 113.845C33.3137 113.669 33.2115 113.272 33.3926 112.976C33.5737 112.679 33.9731 112.589 34.2619 112.766Z" fill="white"/>
<path d="M22.5787 106.98C22.2185 107.46 22.3674 108.072 22.9093 108.575C23.4904 109.115 24.1286 109.16 24.5042 108.755C24.9222 108.305 24.59 107.68 24.3027 107.244L23.9608 106.695C23.4869 105.988 23.045 104.958 23.832 104.097C24.5776 103.306 25.7561 103.306 26.8725 104.342C27.9302 105.324 28.1055 106.471 27.3515 107.375L26.6334 106.709C27.0662 106.15 26.8459 105.484 26.291 104.969C25.6903 104.412 24.9682 104.313 24.5316 104.77C24.1565 105.188 24.3842 105.715 24.7657 106.312L25.1879 106.983C25.7514 107.895 25.8705 108.723 25.2587 109.383C24.5015 110.199 23.2675 110.062 22.3143 109.178C21.3545 108.287 21.1909 107.114 21.8801 106.332L22.5787 106.98Z" fill="white"/>
<path d="M21.5904 102.126L20.9539 101.405L21.1424 100.406C20.562 100.354 19.9007 100.588 19.2396 101.171C18.0643 102.209 17.9779 103.39 18.7087 104.218C19.4453 105.053 20.6277 105.114 21.803 104.077C22.9784 103.039 23.0647 101.858 22.3281 101.023C22.1925 100.87 22.0458 100.744 21.8782 100.648L21.5904 102.126ZM18.5972 100.443C19.4854 99.6592 20.4476 99.3564 21.3136 99.483L21.5842 98.0798L22.2501 98.8346L22.0754 99.7136C22.4154 99.8768 22.7285 100.117 23.0025 100.428C24.1163 101.69 23.988 103.443 22.4454 104.805C20.8961 106.172 19.148 106.076 18.0342 104.814C16.9322 103.565 17.0479 101.811 18.5972 100.443Z" fill="white"/>
<path d="M13.2768 98.6082L12.7049 97.8126L16.1472 95.3371C17.2464 94.5466 18.62 94.8095 19.5194 96.0608C20.4292 97.3266 20.2357 98.7055 19.1365 99.496L15.6942 101.971L15.1223 101.176L18.4995 98.7472C19.2082 98.2375 19.3681 97.3765 18.7963 96.5809C18.2296 95.7925 17.3626 95.6699 16.6539 96.1795L13.2768 98.6082Z" fill="white"/>
<path d="M17.4616 93.2625L17.9826 94.1651L11.2402 95.3844L10.6747 94.4046L15.0971 89.1661L15.6181 90.0687L14.4387 91.4286L15.6944 93.6041L17.4616 93.2625ZM14.8423 93.7671L13.8716 92.0853L11.9645 94.2872L11.9868 94.3258L14.8423 93.7671Z" fill="white"/>
<path d="M14.897 88.7592L9.01896 91.4122L8.07396 89.3174C7.4586 87.9533 7.91776 86.9349 8.99755 86.4476C9.78914 86.0903 10.5511 86.1764 11.1373 86.7718L12.93 84.3991L13.3879 85.414L11.7099 87.6079L11.7355 87.6648L12.2776 88.8664L14.4941 87.8661L14.897 88.7592ZM11.5063 89.2146L11.0045 88.1022C10.6126 87.2334 10.0699 87.0484 9.40413 87.3488C8.73839 87.6493 8.48549 88.1935 8.87741 89.0623L9.37922 90.1746L11.5063 89.2146Z" fill="white"/>
<path d="M12.5947 83.5043L6.48169 85.5586L5.19407 81.7251L5.99619 81.4556L6.97184 84.3602L8.82094 83.7388L7.91336 81.0368L8.70704 80.7701L9.61462 83.4721L11.4806 82.845L10.4936 79.9066L11.2957 79.637L12.5947 83.5043Z" fill="white"/>
<path d="M7.30956 71.1436C7.35274 71.4883 7.10646 71.8154 6.76066 71.8498C6.41707 71.9018 6.09771 71.6456 6.05452 71.3009C6.01245 70.9651 6.25873 70.638 6.60343 70.5948C6.94812 70.5515 7.26748 70.8078 7.30956 71.1436Z" fill="white"/>
<path d="M9.02407 62.2498L2.59314 61.7678L2.76949 59.4139C2.87197 58.046 3.65913 57.435 4.60956 57.5063C5.40898 57.5662 5.78097 58.0854 5.88739 58.6918L5.94957 58.6965C6.03301 58.0596 6.64452 57.4087 7.63936 57.4833C8.62531 57.5572 9.32087 58.2882 9.2084 59.7893L9.02407 62.2498ZM8.36679 59.8156C8.436 58.8918 8.05536 58.4881 7.52241 58.4482C6.90952 58.4022 6.37549 58.8535 6.3176 59.6262L6.21046 61.0563L8.26231 61.2101L8.36679 59.8156ZM5.54372 59.7022C5.5923 59.0538 5.23052 58.5175 4.61763 58.4716C4.08468 58.4316 3.65768 58.7659 3.59978 59.5386L3.50129 60.8533L5.44656 60.9991L5.54372 59.7022Z" fill="white"/>
<path d="M9.55576 56.2773L3.20481 55.1572L3.37491 54.1923L8.89252 55.1654L9.39817 52.2969L10.2315 52.4439L9.55576 56.2773Z" fill="white"/>
<path d="M5.29863 45.8975L5.56394 44.9543L9.64533 46.1029C10.9486 46.4697 11.5997 47.7078 11.1824 49.1912C10.7603 50.6918 9.56177 51.4001 8.25847 51.0333L4.17709 49.8847L4.4424 48.9415L8.44662 50.0684C9.2869 50.3048 10.0597 49.8931 10.325 48.9499C10.5879 48.0152 10.1431 47.2608 9.30285 47.0244L5.29863 45.8975Z" fill="white"/>
<path d="M12.0637 45.8783L6.06068 43.5217L7.53777 39.7571L8.32545 40.0664L7.20625 42.9188L9.02207 43.6316L10.0632 40.9782L10.8426 41.2842L9.80146 43.9376L11.6339 44.6569L12.7661 41.7713L13.5538 42.0805L12.0637 45.8783Z" fill="white"/>
<path d="M15.9613 33.0126C15.7728 33.3045 15.374 33.3967 15.087 33.2007C14.7904 33.0197 14.7104 32.6181 14.8988 32.3263C15.0824 32.0419 15.4813 31.9496 15.7731 32.1382C16.0649 32.3267 16.1449 32.7283 15.9613 33.0126Z" fill="white"/>
<path d="M22.04 21.481C21.5693 21.1089 20.9538 21.2426 20.4376 21.7719C19.8841 22.3395 19.8228 22.9765 20.2181 23.3622C20.658 23.7914 21.2902 23.4748 21.7339 23.1984L22.2904 22.8702C23.009 22.4139 24.0493 21.9978 24.8907 22.8063C25.6623 23.5715 25.6329 24.7499 24.5696 25.8405C23.5621 26.8736 22.4114 27.0202 21.5263 26.2438L22.2103 25.5423C22.7575 25.989 23.4289 25.7854 23.9575 25.2433C24.5296 24.6566 24.6466 23.937 24.2001 23.4889C23.7922 23.1034 23.2596 23.318 22.6532 23.6846L21.9718 24.09C21.0464 24.6307 20.2162 24.7293 19.5723 24.101C18.7753 23.3235 18.9426 22.0929 19.8506 21.1618C20.7647 20.2244 21.9408 20.09 22.7054 20.7987L22.04 21.481Z" fill="white"/>
<path d="M26.912 20.6041L27.6488 19.9857L28.6416 20.199C28.7081 19.6199 28.4915 18.9528 27.9247 18.2772C26.9172 17.0762 25.7388 16.9604 24.8928 17.6705C24.04 18.3863 23.9493 19.5671 24.9568 20.7682C25.9644 21.9693 27.1427 22.085 27.9956 21.3692C28.1525 21.2375 28.282 21.0939 28.3818 20.9288L26.912 20.6041ZM28.6684 17.6531C29.4298 18.5607 29.7085 19.5304 29.5603 20.3932L30.9559 20.6987L30.185 21.3458L29.3108 21.1492C29.1392 21.4851 28.891 21.7922 28.5738 22.0585C27.2843 23.1408 25.5355 22.9688 24.2131 21.3924C22.885 19.8092 23.0251 18.0635 24.3146 16.9812C25.5905 15.9104 27.3403 16.0698 28.6684 17.6531Z" fill="white"/>
<path d="M30.6416 12.3873L31.4511 11.8353L33.8391 15.3388C34.6017 16.4575 34.3046 17.8245 33.0314 18.6927C31.7436 19.571 30.3702 19.3432 29.6077 18.2244L27.2196 14.7209L28.0291 14.1689L30.372 17.6061C30.8636 18.3274 31.7203 18.5088 32.5298 17.9567C33.3319 17.4097 33.4761 16.5459 32.9845 15.8246L30.6416 12.3873Z" fill="white"/>
<path d="M35.8712 16.7L34.956 17.1985L33.9061 10.4267L34.8995 9.88558L40.0248 14.4374L39.1096 14.936L37.7798 13.723L35.574 14.9245L35.8712 16.7ZM35.4324 14.0684L37.1377 13.1396L34.9846 11.1781L34.9455 11.1995L35.4324 14.0684Z" fill="white"/>
<path d="M40.4423 14.2524L37.9379 8.30956L40.0555 7.41671C41.4344 6.83532 42.4408 7.31966 42.9008 8.41137C43.2381 9.21168 43.1329 9.97136 42.5231 10.5427L44.8499 12.394L43.8239 12.8266L41.673 11.0944L41.6156 11.1187L40.4008 11.6308L41.3452 13.8717L40.4423 14.2524ZM40.0722 10.851L41.1967 10.3769C42.0749 10.0066 42.2734 9.46858 41.9898 8.7955C41.7061 8.12242 41.1686 7.85607 40.2904 8.22636L39.1659 8.70047L40.0722 10.851Z" fill="white"/>
<path d="M45.7508 12.0779L43.8504 5.91529L47.7146 4.72304L47.9639 5.53167L45.036 6.43505L45.6108 8.29915L48.3345 7.4588L48.5813 8.25892L45.8576 9.09927L46.4377 10.9804L49.3997 10.0665L49.649 10.8751L45.7508 12.0779Z" fill="white"/>
<path d="M58.2337 7.09659C57.8881 7.13119 57.5672 6.87684 57.5415 6.53029C57.498 6.18552 57.7621 5.87262 58.1078 5.83802C58.4446 5.8043 58.7655 6.05865 58.8 6.40431C58.8346 6.74998 58.5705 7.06287 58.2337 7.09659Z" fill="white"/>
</svg>
