<svg width="128" height="128" viewBox="0 0 128 128" fill="none" xmlns="http://www.w3.org/2000/svg">
<path d="M9 66.4024L2.55103 66.4024L2.55103 64.0419C2.55103 62.6702 3.29034 62.0021 4.24344 62.0021C5.04511 62.0021 5.45485 62.492 5.60627 63.0888L5.66862 63.0888C5.70425 62.4475 6.26542 61.7527 7.26305 61.7527C8.25178 61.7527 9 62.4297 9 63.935L9 66.4024ZM8.1627 64.0241C8.1627 63.0977 7.75296 62.7236 7.21852 62.7236C6.6039 62.7236 6.10509 63.2135 6.10509 63.9885L6.10509 65.4226L8.1627 65.4226L8.1627 64.0241ZM5.33905 64.1221C5.33905 63.4718 4.93822 62.9641 4.3236 62.9641C3.78916 62.9641 3.38832 63.3293 3.38832 64.1043L3.38832 65.4226L5.33905 65.4226L5.33905 64.1221Z" fill="white"/>
<path d="M9.08731 60.4102L2.67039 59.7681L2.76796 58.7931L8.34288 59.351L8.63291 56.4528L9.47491 56.537L9.08731 60.4102Z" fill="white"/>
<path d="M4.0614 50.3776L4.2556 49.4172L8.4115 50.2572C9.7386 50.5254 10.4803 51.7113 10.1749 53.2217C9.86592 54.7495 8.72349 55.5455 7.39639 55.2773L3.24049 54.4374L3.43468 53.477L7.51201 54.3011C8.36764 54.474 9.10758 54.0056 9.30177 53.0452C9.4942 52.0936 8.99436 51.3746 8.13873 51.2017L4.0614 50.3776Z" fill="white"/>
<path d="M10.8103 49.8553L4.6477 47.9549L5.83995 44.0907L6.64858 44.34L5.7452 47.268L7.60931 47.8429L8.44966 45.1192L9.24977 45.3659L8.40942 48.0896L10.2905 48.6697L11.2044 45.7077L12.0131 45.957L10.8103 49.8553Z" fill="white"/>
<path d="M13.7388 36.7378C13.5726 37.0429 13.1816 37.1647 12.8808 36.9908C12.5714 36.8325 12.4617 36.4381 12.6279 36.133C12.7898 35.8357 13.1807 35.7139 13.4858 35.88C13.7909 36.0461 13.9007 36.4406 13.7388 36.7378Z" fill="white"/>
<path d="M18.9378 24.782C18.4405 24.4462 17.8365 24.6255 17.3612 25.1918C16.8515 25.7991 16.838 26.4387 17.2611 26.7937C17.7319 27.1887 18.3388 26.8258 18.7608 26.517L19.2913 26.1482C19.974 25.6396 20.9805 25.147 21.8802 25.8901C22.7071 26.5953 22.7658 27.7724 21.7866 28.9391C20.8589 30.0443 19.7221 30.2766 18.7812 29.5687L19.4111 28.8182C19.9903 29.2227 20.6447 28.9694 21.1315 28.3895C21.6583 27.7618 21.7212 27.0356 21.2424 26.6223C20.8068 26.2685 20.2915 26.5222 19.7141 26.9331L19.0646 27.3882C18.182 27.9964 17.3614 28.1567 16.6721 27.5785C15.8191 26.8629 15.894 25.6236 16.7301 24.6275C17.5718 23.6246 18.7349 23.4027 19.5505 24.052L18.9378 24.782Z" fill="white"/>
<path d="M23.7351 23.5514L24.4238 22.8798L25.4301 23.0183C25.4531 22.436 25.1871 21.7871 24.5713 21.1559C23.4766 20.0338 22.2925 20.0064 21.5017 20.7775C20.7046 21.5549 20.7024 22.7389 21.7972 23.861C22.892 24.9832 24.076 25.0105 24.8732 24.2332C25.0198 24.0902 25.1383 23.9373 25.2255 23.7652L23.7351 23.5514ZM25.2665 20.4781C26.0938 21.326 26.4442 22.272 26.3609 23.1433L27.7758 23.3435L27.0552 24.0462L26.1686 23.9155C26.0225 24.2633 25.7979 24.588 25.5014 24.8771C24.2961 26.0525 22.539 26.0117 21.1021 24.5389C19.659 23.0597 19.6682 21.3089 20.8735 20.1336C22.0661 18.9707 23.8233 18.9989 25.2665 20.4781Z" fill="white"/>
<path d="M26.8409 15.0736L27.607 14.4627L30.251 17.7773C31.0953 18.8358 30.9012 20.2208 29.6963 21.1815C28.4775 22.1532 27.0905 22.0287 26.2462 20.9702L23.6023 17.6556L24.3684 17.0448L26.9624 20.2967C27.5067 20.9791 28.3747 21.096 29.1408 20.4851C29.9 19.8799 29.9792 19.0079 29.4349 18.3255L26.8409 15.0736Z" fill="white"/>
<path d="M32.378 18.9856L31.5025 19.5509L29.9486 12.8777L30.899 12.2641L36.3515 16.4199L35.476 16.9852L34.0589 15.8751L31.9487 17.2376L32.378 18.9856ZM31.7435 16.3947L33.3748 15.3413L31.0805 13.5464L31.0431 13.5706L31.7435 16.3947Z" fill="white"/>
<path d="M36.7558 16.2L33.8131 10.4615L35.8583 9.41329C37.19 8.73072 38.23 9.13855 38.7705 10.1927C39.1668 10.9655 39.1188 11.7308 38.5534 12.3459L41.0126 14.0182L40.0217 14.5261L37.7468 12.9595L37.6914 12.9879L36.5182 13.5892L37.6278 15.753L36.7558 16.2ZM36.132 12.8363L37.218 12.2796C38.0662 11.8449 38.224 11.2936 37.8907 10.6437C37.5574 9.99376 37.0013 9.7683 36.1531 10.203L35.0672 10.7596L36.132 12.8363Z" fill="white"/>
<path d="M41.8906 13.6359L39.5341 7.63288L43.2986 6.15579L43.6079 6.94348L40.7554 8.06268L41.4682 9.8785L44.1217 8.83738L44.4276 9.61678L41.7742 10.6579L42.4935 12.4903L45.3791 11.3581L45.6884 12.1458L41.8906 13.6359Z" fill="white"/>
<path d="M53.9684 7.74556C53.6263 7.80586 53.2873 7.57619 53.2357 7.23253C53.1666 6.89197 53.4066 6.56024 53.7487 6.49993C54.082 6.44117 54.421 6.67084 54.4814 7.01295C54.5417 7.35506 54.3017 7.6868 53.9684 7.74556Z" fill="white"/>
<path d="M62.9345 9.01363L63.0953 2.56666L65.4551 2.6255C66.8264 2.65969 67.4758 3.41543 67.452 4.36823C67.432 5.16964 66.9321 5.56705 66.3317 5.70355L66.3301 5.76588C66.9704 5.81749 67.6509 6.3958 67.626 7.39312C67.6014 8.38154 66.906 9.11265 65.4011 9.07513L62.9345 9.01363ZM65.3329 8.23587C66.259 8.25896 66.6432 7.85867 66.6565 7.3244C66.6719 6.70997 66.1946 6.1991 65.4199 6.17979L63.9862 6.14404L63.9349 8.20102L65.3329 8.23587ZM65.3054 5.41066C65.9554 5.42686 66.473 5.03881 66.4883 4.42439C66.5016 3.89011 66.1466 3.4803 65.3718 3.46098L64.054 3.42812L64.0053 5.37824L65.3054 5.41066Z" fill="white"/>
<path d="M68.9214 9.24839L69.7235 2.84949L70.6957 2.97128L69.9989 8.53055L72.889 8.89262L72.7838 9.73226L68.9214 9.24839Z" fill="white"/>
<path d="M79.0778 4.47699L80.0331 4.69497L79.0894 8.82855C78.7881 10.1485 77.5839 10.8605 76.0816 10.5177C74.5618 10.1709 73.7946 9.00909 74.096 7.68913L75.0397 3.55555L75.9949 3.77353L75.0691 7.82895C74.8748 8.67998 75.3246 9.43129 76.2798 9.64927C77.2264 9.86526 77.9577 9.38345 78.152 8.53242L79.0778 4.47699Z" fill="white"/>
<path d="M79.4337 11.2342L81.488 5.12118L85.3215 6.4088L85.0519 7.21092L82.1473 6.23528L81.5258 8.08438L84.2279 8.99196L83.9611 9.78564L81.2591 8.87806L80.632 10.744L83.5705 11.731L83.3009 12.5332L79.4337 11.2342Z" fill="white"/>
<path d="M92.4763 14.4837C92.1754 14.31 92.0634 13.9162 92.2448 13.6199C92.4108 13.3146 92.808 13.2147 93.1088 13.3883C93.402 13.5576 93.514 13.9513 93.3403 14.2522C93.1666 14.553 92.7694 14.6529 92.4763 14.4837Z" fill="white"/>
<path d="M104.308 19.9811C104.656 19.4924 104.492 18.8843 103.938 18.3952C103.343 17.8707 102.704 17.8412 102.338 18.2552C101.932 18.716 102.279 19.3316 102.577 19.761L102.933 20.3004C103.424 20.9953 103.892 22.0136 103.126 22.8943C102.401 23.7031 101.222 23.7325 100.08 22.7248C98.998 21.7701 98.7941 20.6281 99.5255 19.7054L100.26 20.3536C99.8413 20.9224 100.078 21.5828 100.646 22.0837C101.26 22.6259 101.985 22.7068 102.41 22.2386C102.775 21.812 102.534 21.2907 102.138 20.7034L101.699 20.043C101.113 19.1457 100.973 18.3215 101.568 17.647C102.305 16.8123 103.542 16.9181 104.518 17.7784C105.499 18.6447 105.692 19.8127 105.023 20.6116L104.308 19.9811Z" fill="white"/>
<path d="M105.416 24.803L106.071 25.5081L105.907 26.5103C106.489 26.5479 107.144 26.2982 107.791 25.6985C108.94 24.6323 108.997 23.4497 108.246 22.6401C107.488 21.824 106.304 21.7923 105.155 22.8585C104.006 23.9247 103.949 25.1073 104.706 25.9234C104.846 26.0736 104.995 26.1958 105.165 26.2872L105.416 24.803ZM108.451 26.4102C107.583 27.2158 106.628 27.5425 105.759 27.4375L105.524 28.8467L104.839 28.1089L104.992 27.226C104.648 27.0714 104.328 26.8389 104.047 26.5353C102.901 25.3013 102.986 23.5462 104.495 22.1469C106.01 20.7414 107.76 20.7943 108.905 22.0283C110.038 23.2492 109.966 25.0048 108.451 26.4102Z" fill="white"/>
<path d="M113.819 28.1188L114.411 28.8998L111.03 31.4594C109.951 32.2768 108.571 32.0482 107.64 30.82C106.699 29.5775 106.858 28.1945 107.937 27.3771L111.317 24.8174L111.909 25.5984L108.593 28.1097C107.897 28.6367 107.759 29.5012 108.35 30.2822C108.937 31.0561 109.807 31.1571 110.503 30.6301L113.819 28.1188Z" fill="white"/>
<path d="M109.764 33.5586L109.221 32.6694L115.932 31.2834L116.522 32.2486L112.231 37.5943L111.687 36.7051L112.833 35.3165L111.523 33.1733L109.764 33.5586ZM112.371 32.9893L113.383 34.6461L115.235 32.398L115.212 32.36L112.371 32.9893Z" fill="white"/>
<path d="M112.443 38.0019L118.253 35.2044L119.25 37.2748C119.9 38.623 119.466 39.6523 118.399 40.1662C117.616 40.5429 116.852 40.4758 116.251 39.8951L114.518 42.3113L114.035 41.3082L115.658 39.0736L115.631 39.0175L115.059 37.8298L112.868 38.8846L112.443 38.0019ZM115.821 37.4627L116.351 38.5621C116.764 39.4208 117.312 39.5923 117.97 39.2754C118.628 38.9586 118.867 38.4084 118.454 37.5497L117.924 36.4503L115.821 37.4627Z" fill="white"/>
<path d="M114.877 43.1959L120.938 40.9907L122.321 44.7907L121.526 45.08L120.478 42.2008L118.644 42.8678L119.62 45.5462L118.833 45.8325L117.858 43.1541L116.008 43.8272L117.068 46.74L116.273 47.0293L114.877 43.1959Z" fill="white"/>
<path d="M120.462 55.4165C120.41 55.073 120.648 54.7399 120.993 54.6969C121.335 54.6364 121.661 54.8846 121.713 55.2281C121.763 55.5628 121.525 55.8959 121.182 55.9477C120.838 55.9994 120.513 55.7512 120.462 55.4165Z" fill="white"/>
<path d="M118.978 64.3465L125.419 64.6679L125.302 67.0254C125.233 68.3955 124.461 69.0259 123.51 68.9784C122.709 68.9384 122.324 68.4287 122.203 67.8251L122.14 67.822C122.073 68.4608 121.478 69.1267 120.481 69.077C119.494 69.0277 118.78 68.3143 118.855 66.8108L118.978 64.3465ZM119.696 66.7636C119.65 67.6888 120.04 68.0829 120.574 68.1095C121.188 68.1401 121.711 67.6757 121.749 66.9017L121.821 65.4694L119.766 65.3669L119.696 66.7636ZM122.521 66.8064C122.489 67.4559 122.864 67.9829 123.477 68.0136C124.011 68.0402 124.43 67.6954 124.468 66.9214L124.534 65.6048L122.586 65.5076L122.521 66.8064Z" fill="white"/>
<path d="M118.592 70.3263L124.969 71.2873L124.823 72.2561L119.283 71.4213L118.848 74.3014L118.012 74.1753L118.592 70.3263Z" fill="white"/>
<path d="M123.108 80.5965L122.867 81.546L118.758 80.5C117.446 80.166 116.764 78.9446 117.144 77.4513C117.529 75.9407 118.71 75.2027 120.022 75.5367L124.131 76.5827L123.889 77.5322L119.858 76.506C119.012 76.2906 118.249 76.7216 118.008 77.6711C117.768 78.6119 118.231 79.3549 119.077 79.5703L123.108 80.5965Z" fill="white"/>
<path d="M116.344 80.7821L122.405 82.9873L121.021 86.7873L120.226 86.4979L121.274 83.6187L119.441 82.9516L118.466 85.63L117.679 85.3437L118.654 82.6653L116.804 81.9922L115.744 84.9049L114.949 84.6156L116.344 80.7821Z" fill="white"/>
<path d="M112.766 93.7371C112.947 93.4407 113.343 93.3385 113.635 93.5272C113.936 93.7007 114.026 94.1001 113.845 94.3965C113.669 94.6853 113.272 94.7875 112.976 94.6064C112.679 94.4253 112.589 94.0259 112.766 93.7371Z" fill="white"/>
<path d="M106.98 105.421C107.46 105.782 108.072 105.633 108.575 105.091C109.115 104.51 109.16 103.871 108.755 103.496C108.305 103.078 107.68 103.41 107.244 103.697L106.695 104.039C105.988 104.513 104.958 104.955 104.097 104.168C103.306 103.422 103.306 102.244 104.342 101.127C105.324 100.07 106.471 99.8945 107.375 100.648L106.709 101.367C106.15 100.934 105.484 101.154 104.969 101.709C104.412 102.31 104.313 103.032 104.77 103.468C105.188 103.844 105.715 103.616 106.312 103.234L106.983 102.812C107.895 102.249 108.723 102.129 109.383 102.741C110.199 103.499 110.062 104.733 109.178 105.686C108.287 106.645 107.114 106.809 106.332 106.12L106.98 105.421Z" fill="white"/>
<path d="M102.126 106.409L101.405 107.045L100.406 106.857C100.354 107.437 100.588 108.098 101.171 108.759C102.209 109.935 103.39 110.021 104.218 109.29C105.053 108.554 105.114 107.371 104.077 106.196C103.039 105.021 101.858 104.934 101.023 105.671C100.87 105.807 100.744 105.953 100.648 106.121L102.126 106.409ZM100.443 109.402C99.6592 108.514 99.3564 107.551 99.483 106.685L98.0798 106.415L98.8346 105.749L99.7136 105.924C99.8768 105.584 100.117 105.271 100.428 104.997C101.69 103.883 103.443 104.011 104.805 105.554C106.172 107.103 106.076 108.851 104.814 109.965C103.565 111.067 101.811 110.951 100.443 109.402Z" fill="white"/>
<path d="M98.6082 114.723L97.8126 115.295L95.3371 111.853C94.5466 110.754 94.8095 109.38 96.0608 108.481C97.3266 107.571 98.7055 107.764 99.496 108.864L101.971 112.306L101.176 112.878L98.7472 109.5C98.2375 108.792 97.3765 108.632 96.5809 109.204C95.7925 109.77 95.6699 110.637 96.1795 111.346L98.6082 114.723Z" fill="white"/>
<path d="M93.2625 110.539L94.1651 110.018L95.3844 116.761L94.4046 117.326L89.1661 112.904L90.0687 112.383L91.4286 113.562L93.6041 112.307L93.2625 110.539ZM93.7671 113.159L92.0853 114.129L94.2872 116.036L94.3258 116.014L93.7671 113.159Z" fill="white"/>
<path d="M88.7592 113.102L91.4122 118.98L89.3174 119.925C87.9533 120.54 86.9349 120.081 86.4476 119.001C86.0903 118.21 86.1764 117.448 86.7718 116.862L84.3991 115.069L85.414 114.611L87.6079 116.289L87.6648 116.263L88.8664 115.721L87.8661 113.505L88.7592 113.102ZM89.2146 116.493L88.1022 116.994C87.2334 117.386 87.0484 117.929 87.3488 118.595C87.6493 119.261 88.1935 119.514 89.0623 119.122L90.1746 118.62L89.2146 116.493Z" fill="white"/>
<path d="M83.5043 115.407L85.5586 121.52L81.7251 122.808L81.4556 122.006L84.3602 121.03L83.7388 119.181L81.0368 120.089L80.7701 119.295L83.4721 118.387L82.845 116.521L79.9066 117.508L79.637 116.706L83.5043 115.407Z" fill="white"/>
<path d="M71.1436 120.688C71.4883 120.645 71.8154 120.892 71.8498 121.237C71.9018 121.581 71.6456 121.9 71.3009 121.944C70.9651 121.986 70.638 121.739 70.5948 121.395C70.5515 121.05 70.8078 120.731 71.1436 120.688Z" fill="white"/>
<path d="M62.2498 118.976L61.7678 125.407L59.4139 125.231C58.046 125.128 57.435 124.341 57.5063 123.39C57.5662 122.591 58.0854 122.219 58.6918 122.113L58.6965 122.05C58.0596 121.967 57.4087 121.355 57.4833 120.361C57.5572 119.375 58.2882 118.679 59.7893 118.792L62.2498 118.976ZM59.8156 119.633C58.8918 119.564 58.4881 119.945 58.4482 120.478C58.4022 121.09 58.8535 121.625 59.6262 121.682L61.0563 121.79L61.2101 119.738L59.8156 119.633ZM59.7022 122.456C59.0538 122.408 58.5175 122.769 58.4716 123.382C58.4316 123.915 58.7659 124.342 59.5386 124.4L60.8533 124.499L60.9991 122.553L59.7022 122.456Z" fill="white"/>
<path d="M56.2773 118.443L55.1572 124.794L54.1923 124.624L55.1654 119.107L52.2969 118.601L52.4439 117.768L56.2773 118.443Z" fill="white"/>
<path d="M45.8975 122.7L44.9543 122.435L46.1029 118.354C46.4697 117.05 47.7078 116.399 49.1912 116.817C50.6918 117.239 51.4001 118.437 51.0333 119.741L49.8847 123.822L48.9415 123.557L50.0684 119.552C50.3048 118.712 49.8931 117.939 48.9499 117.674C48.0152 117.411 47.2608 117.856 47.0244 118.696L45.8975 122.7Z" fill="white"/>
<path d="M45.8783 115.934L43.5217 121.937L39.7571 120.46L40.0664 119.673L42.9188 120.792L43.6316 118.976L40.9782 117.935L41.2842 117.155L43.9376 118.197L44.6569 116.364L41.7713 115.232L42.0805 114.444L45.8783 115.934Z" fill="white"/>
<path d="M33.0126 112.041C33.3045 112.229 33.3967 112.628 33.2007 112.915C33.0197 113.212 32.6181 113.292 32.3263 113.103C32.0419 112.92 31.9496 112.521 32.1382 112.229C32.3267 111.937 32.7283 111.857 33.0126 112.041Z" fill="white"/>
<path d="M21.481 105.96C21.1089 106.431 21.2426 107.046 21.7719 107.562C22.3395 108.116 22.9765 108.177 23.3622 107.782C23.7914 107.342 23.4748 106.71 23.1984 106.266L22.8702 105.71C22.4139 104.991 21.9978 103.951 22.8063 103.109C23.5715 102.338 24.7499 102.367 25.8405 103.43C26.8736 104.438 27.0202 105.589 26.2438 106.474L25.5423 105.79C25.989 105.242 25.7854 104.571 25.2433 104.043C24.6566 103.47 23.937 103.353 23.4889 103.8C23.1034 104.208 23.318 104.74 23.6846 105.347L24.09 106.028C24.6307 106.954 24.7293 107.784 24.101 108.428C23.3235 109.225 22.0929 109.057 21.1618 108.149C20.2244 107.235 20.09 106.059 20.7987 105.295L21.481 105.96Z" fill="white"/>
<path d="M20.6041 101.088L19.9857 100.351L20.199 99.3584C19.6199 99.2919 18.9528 99.5085 18.2772 100.075C17.0762 101.083 16.9604 102.261 17.6705 103.107C18.3863 103.96 19.5671 104.051 20.7682 103.043C21.9693 102.036 22.085 100.857 21.3692 100.004C21.2375 99.8475 21.0939 99.718 20.9288 99.6182L20.6041 101.088ZM17.6531 99.3316C18.5607 98.5702 19.5304 98.2915 20.3932 98.4397L20.6987 97.0441L21.3458 97.815L21.1492 98.6892C21.4851 98.8608 21.7922 99.109 22.0585 99.4262C23.1408 100.716 22.9688 102.464 21.3924 103.787C19.8092 105.115 18.0635 104.975 16.9812 103.685C15.9104 102.41 16.0698 100.66 17.6531 99.3316Z" fill="white"/>
<path d="M12.3873 97.3584L11.8353 96.5489L15.3388 94.1609C16.4575 93.3983 17.8245 93.6954 18.6927 94.9686C19.571 96.2564 19.3432 97.6298 18.2244 98.3923L14.7209 100.78L14.1689 99.9709L17.6061 97.628C18.3274 97.1364 18.5088 96.2797 17.9567 95.4702C17.4097 94.6681 16.5459 94.5239 15.8246 95.0155L12.3873 97.3584Z" fill="white"/>
<path d="M16.7 92.1278L17.1985 93.043L10.4267 94.0929L9.88558 93.0995L14.4374 87.9742L14.936 88.8894L13.723 90.2192L14.9245 92.4251L16.7 92.1278ZM14.0684 92.5666L13.1396 90.8614L11.1781 93.0144L11.1995 93.0535L14.0684 92.5666Z" fill="white"/>
<path d="M14.2524 87.5577L8.30956 90.0621L7.41671 87.9445C6.83532 86.5656 7.31966 85.5592 8.41137 85.0992C9.21168 84.7619 9.97136 84.8671 10.5427 85.4769L12.394 83.1501L12.8266 84.1761L11.0944 86.327L11.1187 86.3844L11.6308 87.5992L13.8717 86.6548L14.2524 87.5577ZM10.851 87.9278L10.3769 86.8033C10.0066 85.9251 9.46858 85.7266 8.7955 86.0102C8.12242 86.2939 7.85607 86.8314 8.22636 87.7096L8.70047 88.8341L10.851 87.9278Z" fill="white"/>
<path d="M12.0779 82.2473L5.91529 84.1477L4.72304 80.2835L5.53167 80.0341L6.43505 82.9621L8.29915 82.3872L7.4588 79.6635L8.25892 79.4168L9.09927 82.1405L10.9804 81.5604L10.0665 78.5984L10.8751 78.349L12.0779 82.2473Z" fill="white"/>
<path d="M7.09659 69.7643C7.13119 70.11 6.87684 70.4308 6.53029 70.4566C6.18552 70.5 5.87262 70.2359 5.83802 69.8902C5.8043 69.5534 6.05865 69.2326 6.40431 69.198C6.74998 69.1634 7.06287 69.4275 7.09659 69.7643Z" fill="white"/>
</svg>
