<svg width="14" height="14" viewBox="0 0 14 14" fill="none" xmlns="http://www.w3.org/2000/svg">
<path d="M12.9496 4.2296C12.7993 3.66154 12.3578 3.21571 11.797 3.06471C10.7804 2.78906 6.70457 2.78906 6.70457 2.78906C6.70457 2.78906 2.62872 2.78906 1.61214 3.06471C1.05135 3.21571 0.609881 3.66154 0.459542 4.2296C0.1875 5.25787 0.1875 7.40071 0.1875 7.40071C0.1875 7.40071 0.1875 9.54354 0.459542 10.5718C0.609881 11.1399 1.05135 11.5665 1.61214 11.7175C2.62872 11.9932 6.70457 11.9932 6.70457 11.9932C6.70457 11.9932 10.7804 11.9932 11.797 11.7175C12.3578 11.5665 12.7993 11.1375 12.9496 10.5718C13.2216 9.54354 13.2216 7.40071 13.2216 7.40071C13.2216 7.40071 13.2216 5.25787 12.9496 4.2296ZM5.373 9.34699V5.45442L8.77829 7.40071L5.373 9.34699Z" fill="white"/>
</svg>
