<svg width="80" height="80" viewBox="0 0 80 80" fill="none" xmlns="http://www.w3.org/2000/svg">
<g clip-path="url(#clip0_195_20900)">
<path d="M55.3324 33.3407C50.552 33.3407 46.6621 29.4508 46.6621 24.6703C46.6621 19.8899 50.552 16 55.3324 16C60.1129 16 64.0028 19.8899 64.0028 24.6703C63.9999 29.4508 60.1129 33.3407 55.3324 33.3407ZM55.3324 16.7728C50.9772 16.7728 47.4349 20.3151 47.4349 24.6703C47.4349 29.0256 50.9772 32.5679 55.3324 32.5679C59.6877 32.5679 63.23 29.0256 63.23 24.6703C63.23 20.3151 59.6849 16.7728 55.3324 16.7728Z" fill="white"/>
<path d="M55.3336 30.0255C52.3802 30.0255 49.9785 27.6237 49.9785 24.6675C49.9785 21.7142 52.3802 19.3125 55.3336 19.3125C58.2869 19.3125 60.6915 21.7142 60.6915 24.6675C60.6886 27.6237 58.2869 30.0255 55.3336 30.0255ZM55.3336 20.0853C52.8054 20.0853 50.7513 22.1423 50.7513 24.6675C50.7513 27.1957 52.8083 29.2498 55.3336 29.2498C57.8617 29.2498 59.9158 27.1928 59.9158 24.6675C59.9158 22.1423 57.8588 20.0853 55.3336 20.0853Z" fill="white"/>
<path d="M32.1382 33.3407C27.3577 33.3407 23.4707 29.4508 23.4707 24.6703C23.4707 19.8899 27.3577 16 32.1382 16C36.9186 16 40.8085 19.8899 40.8085 24.6703C40.8085 29.4508 36.9186 33.3407 32.1382 33.3407ZM32.1382 16.7728C27.7829 16.7728 24.2406 20.3151 24.2406 24.6703C24.2406 29.0256 27.7829 32.5679 32.1382 32.5679C36.4934 32.5679 40.0357 29.0256 40.0357 24.6703C40.0357 20.3151 36.4934 16.7728 32.1382 16.7728Z" fill="white"/>
<circle cx="55.365" cy="24.8367" r="4.82008" fill="white"/>
<path d="M32.1382 30.0255C29.1849 30.0255 26.7832 27.6237 26.7832 24.6675C26.7832 21.7142 29.1849 19.3125 32.1382 19.3125C35.0916 19.3125 37.4962 21.7142 37.4962 24.6675C37.4962 27.6237 35.0944 30.0255 32.1382 30.0255ZM32.1382 20.0853C29.6101 20.0853 27.556 22.1423 27.556 24.6675C27.556 27.1957 29.613 29.2498 32.1382 29.2498C34.6664 29.2498 36.7205 27.1928 36.7205 24.6675C36.7234 22.1423 34.6664 20.0853 32.1382 20.0853Z" fill="white"/>
<path d="M43.736 23.4007C42.6098 23.4007 41.6934 22.4842 41.6934 21.358C41.6934 20.2319 42.6098 19.3154 43.736 19.3154C44.8621 19.3154 45.7786 20.2319 45.7786 21.358C45.7786 22.4842 44.8621 23.4007 43.736 23.4007ZM43.736 20.0854C43.035 20.0854 42.4662 20.6542 42.4662 21.3552C42.4662 22.0562 43.035 22.625 43.736 22.625C44.437 22.625 45.0058 22.0562 45.0058 21.3552C45.0058 20.6571 44.437 20.0854 43.736 20.0854Z" fill="white"/>
<path d="M24.0217 26.7132H20.5426C19.9968 26.7132 19.4854 26.5006 19.0976 26.1156C18.7126 25.7278 18.5 25.2164 18.5 24.6705C18.5 23.5444 19.4164 22.6279 20.5426 22.6279H24.0217V23.4007H20.5426C19.8416 23.4007 19.2728 23.9696 19.2728 24.6705C19.2728 25.0095 19.405 25.3284 19.6463 25.5698C19.8876 25.8111 20.2065 25.9432 20.5455 25.9432H24.0245V26.7132H24.0217Z" fill="white"/>
<path d="M20.931 26.3252H20.1582V32.9529H20.931V26.3252Z" fill="white"/>
<path d="M20.5421 63.1587C18.5023 63.1587 16.8418 61.4982 16.8418 59.4584V59.4354L16.8677 59.0304L18.396 34.5822C18.4678 33.4531 19.4101 32.5654 20.5421 32.5654C21.674 32.5654 22.6163 33.4503 22.6881 34.5822L24.2423 59.4584C24.2423 61.501 22.5818 63.1587 20.5421 63.1587ZM17.6146 59.4699C17.6203 61.0787 18.9304 62.3859 20.5421 62.3859C22.1509 62.3859 23.4638 61.0787 23.4695 59.4699L23.4465 59.0763L21.9182 34.631C21.8722 33.9071 21.2689 33.3411 20.5449 33.3411C19.821 33.3411 19.2148 33.9071 19.1717 34.631L17.6146 59.4699Z" fill="white"/>
<path d="M45.3945 21.7201L45.0625 22.418L47.0471 23.3621L47.3791 22.6643L45.3945 21.7201Z" fill="white"/>
<path d="M42.0744 21.7199L40.0898 22.6641L40.4218 23.3619L42.4064 22.4178L42.0744 21.7199Z" fill="white"/>
</g>
<defs>
<clipPath id="clip0_195_20900">
<rect width="48" height="48" fill="white" transform="translate(16 16)"/>
</clipPath>
</defs>
</svg>
